<svg width="27" height="27" viewBox="0 0 27 27" fill="none" xmlns="http://www.w3.org/2000/svg">
<path d="M13.3383 3.19848e-07C10.6998 0.000578056 8.12068 0.783518 5.92711 2.24982C3.73355 3.71612 2.02402 5.79994 1.01471 8.23778C0.00539015 10.6756 -0.258394 13.358 0.25671 15.9458C0.771814 18.5335 2.04267 20.9104 3.90859 22.7759C5.77451 24.6414 8.15169 25.9118 10.7396 26.4263C13.3274 26.9408 16.0097 26.6765 18.4474 25.6666C20.885 24.6568 22.9684 22.9468 24.4342 20.7529C25.9001 18.559 26.6824 15.9797 26.6824 13.3412C26.6824 11.589 26.3373 9.8539 25.6666 8.23508C24.996 6.61626 24.013 5.1454 22.7739 3.90652C21.5347 2.66763 20.0636 1.68499 18.4447 1.0147C16.8257 0.344415 15.0905 -0.000383354 13.3383 3.19848e-07V3.19848e-07Z" fill="url(#paint0_linear_2319_102)"/>
<defs>
<linearGradient id="paint0_linear_2319_102" x1="13.3412" y1="3.19848e-07" x2="13.3412" y2="26.6824" gradientUnits="userSpaceOnUse">
<stop stop-color="#EF4137"/>
<stop offset="0.13" stop-color="#DD403F"/>
<stop offset="0.39" stop-color="#AF3D54"/>
<stop offset="0.74" stop-color="#663975"/>
<stop offset="1" stop-color="#2D368F"/>
</linearGradient>
</defs>
</svg>
