<svg width="29" height="29" viewBox="0 0 29 29" fill="none" xmlns="http://www.w3.org/2000/svg">
<path d="M14.4968 3.47629e-07C11.6291 0.000628264 8.82602 0.851572 6.44193 2.44523C4.05783 4.0389 2.19983 6.3037 1.10284 8.95329C0.00585832 11.6029 -0.280837 14.5182 0.279007 17.3308C0.838851 20.1433 2.22009 22.7266 4.24808 24.7542C6.27607 26.7817 8.85972 28.1624 11.6724 28.7216C14.485 29.2808 17.4003 28.9935 20.0496 27.8959C22.699 26.7984 24.9634 24.9399 26.5565 22.5554C28.1497 20.171 29 17.3677 29 14.5C29 12.5956 28.6248 10.7098 27.896 8.95035C27.1671 7.19093 26.0987 5.59232 24.7519 4.24583C23.4051 2.89934 21.8063 1.83134 20.0467 1.10284C18.2871 0.374329 16.4013 -0.000416651 14.4968 3.47629e-07V3.47629e-07Z" fill="url(#paint0_linear_2323_86)"/>
<path d="M13.589 14.4841C13.589 14.4841 14.7129 10.9916 14.0716 8.25798C13.4302 5.52434 13.1191 5.02905 13.4366 2.95898C12.9635 4.22896 12.3158 7.77538 12.9762 9.51843C13.6366 11.2615 13.589 14.4841 13.589 14.4841Z" fill="#F1EA39"/>
<path d="M12.9699 14.8778C12.9699 14.8778 13.5732 11.3473 12.5222 8.68982C11.4713 6.03239 11.0872 5.5625 11.084 3.49561C10.7983 4.76559 10.6808 8.33423 11.6047 10.0106C12.5286 11.687 12.9699 14.8778 12.9699 14.8778Z" fill="#F1EA39"/>
<path d="M12.4015 14.7603C12.4015 14.7603 12.3348 11.2234 10.7855 8.69293C9.23609 6.16249 8.76619 5.73388 8.3725 3.69238C8.33122 4.98141 8.88684 8.50561 10.1219 10.0804C11.357 11.6552 12.4015 14.7603 12.4015 14.7603Z" fill="#F1EA39"/>
<path d="M12.0079 14.8365C12.0079 14.8365 11.1443 11.344 9.03933 9.039C6.93433 6.73398 6.37554 6.35299 5.52783 4.3877C5.77548 5.65768 7.11531 9.07392 8.70278 10.4836C10.2903 11.8933 12.0079 14.8365 12.0079 14.8365Z" fill="#F1EA39"/>
<path d="M11.7125 14.986C11.7125 14.986 10.1028 11.665 7.52478 9.64892C4.94672 7.63283 4.30855 7.34073 3.04175 5.52148C3.56562 6.75019 5.63568 9.93784 7.48668 11.1253C9.33768 12.3127 11.7125 14.986 11.7125 14.986Z" fill="#F1EA39"/>
<path d="M15.2399 14.5187C15.2399 14.5187 14.1033 11.0263 14.7351 8.29265C15.3669 5.55901 15.6876 5.06055 15.3701 2.99365C15.8495 4.26363 16.5099 7.80688 15.8559 9.54993C15.2018 11.293 15.2399 14.5187 15.2399 14.5187Z" fill="#F1EA39"/>
<path d="M15.8401 14.754C15.8401 14.754 15.2337 11.2235 16.2878 8.55652C17.3418 5.88956 17.7197 5.4292 17.7228 3.3623C18.0086 4.63228 18.126 8.20093 17.2053 9.8773C16.2846 11.5537 15.8401 14.754 15.8401 14.754Z" fill="#F1EA39"/>
<path d="M16.2146 14.9065C16.2146 14.9065 16.3448 11.3696 17.9418 8.87407C19.5388 6.37856 20.0118 5.94676 20.4436 3.91162C20.4627 5.20383 19.8436 8.7185 18.5799 10.2615C17.3163 11.8045 16.2146 14.9065 16.2146 14.9065Z" fill="#F1EA39"/>
<path d="M16.6973 14.7666C16.6973 14.7666 17.6497 11.3027 19.8087 9.03262C21.9677 6.76253 22.5392 6.40694 23.4377 4.45752C23.1583 5.7275 21.7264 9.10882 20.1167 10.4899C18.507 11.871 16.6973 14.7666 16.6973 14.7666Z" fill="#F1EA39"/>
<path d="M16.9321 14.9476C16.9321 14.9476 18.6688 11.6837 21.3294 9.75654C23.99 7.82934 24.6314 7.55947 25.968 5.77197C25.3934 6.96893 23.1995 10.0994 21.2945 11.2234C19.3895 12.3473 16.9321 14.9476 16.9321 14.9476Z" fill="#F1EA39"/>
<path d="M13.5508 14.5161C13.5508 14.5161 14.6779 18.0086 14.0334 20.7422C13.3889 23.4758 13.0809 23.9711 13.3984 26.0412C12.9222 24.7712 12.2745 21.2248 12.9349 19.4817C13.5953 17.7387 13.5508 14.5161 13.5508 14.5161Z" fill="#F1EA39"/>
<path d="M12.935 14.1221C12.935 14.1221 13.5383 17.6526 12.4842 20.3037C11.4301 22.9548 11.0491 23.431 11.0459 25.4979C10.7602 24.2279 10.6459 20.6593 11.5666 18.9829C12.4874 17.3065 12.935 14.1221 12.935 14.1221Z" fill="#F1EA39"/>
<path d="M12.3635 14.2358C12.3635 14.2358 12.3 17.7791 10.7475 20.3032C9.19491 22.8273 8.73136 23.2622 8.33767 25.3037C8.29322 24.0147 8.84884 20.4905 10.0839 18.9157C11.3189 17.3409 12.3635 14.2358 12.3635 14.2358Z" fill="#F1EA39"/>
<path d="M11.9698 14.1636C11.9698 14.1636 11.1062 17.656 9.00442 19.961C6.9026 22.266 6.34063 22.647 5.48975 24.6123C5.73739 23.3424 7.07722 19.9261 8.6647 18.5164C10.2522 17.1068 11.9698 14.1636 11.9698 14.1636Z" fill="#F1EA39"/>
<path d="M11.7126 14.0142C11.7126 14.0142 10.0679 17.3225 7.46766 19.3132C4.86738 21.3038 4.23239 21.5959 2.94653 23.412C3.47992 22.2087 5.58492 19.0338 7.45814 17.8495C9.33136 16.6652 11.7126 14.0142 11.7126 14.0142Z" fill="#F1EA39"/>
<path d="M15.2018 14.4814C15.2018 14.4814 14.0652 17.9739 14.7002 20.7075C15.3351 23.4412 15.6526 23.9396 15.3351 26.0065C15.8146 24.7365 16.4718 21.1933 15.8177 19.4502C15.1637 17.7072 15.2018 14.4814 15.2018 14.4814Z" fill="#F1EA39"/>
<path d="M15.802 14.2461C15.802 14.2461 15.1987 17.7639 16.2496 20.4341C17.3005 23.1042 17.6847 23.5614 17.6879 25.6283C17.9736 24.3583 18.0911 20.7897 17.1672 19.1133C16.2433 17.4369 15.802 14.2461 15.802 14.2461Z" fill="#F1EA39"/>
<path d="M16.1766 14.1001C16.1766 14.1001 16.3068 17.637 17.9038 20.1325C19.5008 22.628 19.9771 23.0598 20.4057 25.095C20.4279 23.8027 19.8056 20.2881 18.542 18.745C17.2783 17.202 16.1766 14.1001 16.1766 14.1001Z" fill="#F1EA39"/>
<path d="M16.6624 14.2358C16.6624 14.2358 17.6148 17.6965 19.7738 19.9508C21.9328 22.205 22.5043 22.5796 23.4028 24.5259C23.1202 23.2559 21.6915 19.8746 20.0786 18.4934C18.4657 17.1123 16.6624 14.2358 16.6624 14.2358Z" fill="#F1EA39"/>
<path d="M16.8464 14.0493C16.8464 14.0493 18.6466 17.2878 21.3295 19.1737C24.0123 21.0596 24.679 21.32 26.0506 23.0852C25.4569 21.8851 23.1932 18.8022 21.2882 17.7069C19.3832 16.6115 16.8464 14.0493 16.8464 14.0493Z" fill="#F1EA39"/>
<path d="M17.7767 14.0493H10.8776V14.9828H17.7767V14.0493Z" fill="#F1EA39"/>
<defs>
<linearGradient id="paint0_linear_2323_86" x1="14.5" y1="3.47629e-07" x2="14.5" y2="29" gradientUnits="userSpaceOnUse">
<stop stop-color="#EF4137"/>
<stop offset="0.13" stop-color="#DD403F"/>
<stop offset="0.39" stop-color="#AF3D54"/>
<stop offset="0.74" stop-color="#663975"/>
<stop offset="1" stop-color="#2D368F"/>
</linearGradient>
</defs>
</svg>
