<svg width="23" height="25" viewBox="0 0 23 25" fill="none" xmlns="http://www.w3.org/2000/svg">
<g clip-path="url(#clip0_2319_124)">
<path d="M16.0905 9.03146L15.8326 8.83008C15.8754 8.87601 15.9095 8.92939 15.9332 8.98758C15.9796 9.04696 16.0363 9.03146 16.1034 9.03146" fill="#F6A800"/>
<path d="M15.5568 8.66485L15.5026 8.63128L15.4485 8.62354L15.5568 8.66485Z" fill="#F6A800"/>
<path d="M15.0128 8.46094C15.0941 8.51128 15.1806 8.55283 15.2706 8.58487C15.1925 8.52893 15.1053 8.487 15.0128 8.46094" fill="#F6A800"/>
<path d="M15.4098 8.69312C15.3866 8.64923 15.3866 8.61567 15.451 8.62083L15.286 8.57178C15.3351 8.6033 15.3773 8.6446 15.4098 8.69312" fill="#F6A800"/>
<path d="M15.4098 8.69287C15.4278 8.73676 15.4588 8.78582 15.4691 8.80906C15.4535 8.76833 15.4336 8.72938 15.4098 8.69287" fill="#F6A800"/>
<path d="M14.9664 9.25084C14.9122 9.25084 15.0076 9.07786 14.8942 9.0727C14.6641 9.0454 14.436 9.00402 14.211 8.94877C14.1027 8.94877 14.0073 8.70866 13.8938 8.71899C13.636 8.69058 12.9734 8.83517 13.3344 8.89713C13.7892 8.95856 14.2378 9.05963 14.675 9.1992C15.0706 9.27357 15.4541 9.40216 15.8146 9.58132C15.9062 9.6417 15.9865 9.71773 16.0518 9.80594C15.9694 9.67815 15.8725 9.56033 15.763 9.45481C15.6186 9.27925 15.2654 9.3567 14.9586 9.25084" fill="#F6A800"/>
<path d="M17.4002 11.1177C17.3716 11.0622 17.3379 11.0095 17.2997 10.9602C17.3174 10.8212 17.3002 10.6799 17.2498 10.5492C17.1994 10.4185 17.1173 10.3024 17.0109 10.2114C17.008 10.2632 16.9984 10.3144 16.9825 10.3638C17.065 10.4928 17.1192 10.4877 17.096 10.3431C17.1398 10.6813 17.2223 10.9472 17.2765 11.2416C17.3254 11.2132 17.3899 11.208 17.4002 11.1177" fill="#F6A800"/>
<path d="M17.3203 11.4116L17.2739 11.2412L17.261 11.249L17.3151 11.4168L17.3203 11.4116Z" fill="#F6A800"/>
<path d="M13.8139 8.22821C13.1226 8.06554 12.4171 7.97042 11.7075 7.9442C11.6534 7.97777 11.6173 8.02424 11.5451 7.99842C11.4967 7.96528 11.4424 7.94163 11.3852 7.92871H11.0836L10.9779 7.95195C10.9212 7.9726 10.9418 8.001 10.9779 8.03198C11.0181 8.04963 11.0554 8.07312 11.0887 8.10169C11.0655 8.08362 11.0114 8.0578 10.9805 8.03198C10.928 8.00743 10.8725 7.99006 10.8154 7.98035C10.7238 8.00544 10.6294 8.01931 10.5344 8.02166C10.6219 7.9904 10.7151 7.97808 10.8077 7.98551L10.9779 7.95711L11.0269 7.9442C10.7974 7.9442 10.5731 7.95969 10.3411 7.97518L10.1993 8.00617C10.042 8.05522 9.88472 8.11202 9.76097 8.03457L9.64238 8.05006H9.61917C9.44901 8.06813 9.27627 8.11202 9.10353 8.13784C9.00556 8.19722 8.90501 8.2721 8.79931 8.33664L8.66009 8.27726C8.62383 8.34069 8.57131 8.39328 8.50797 8.42959C8.6111 8.45283 8.71165 8.49413 8.79931 8.50704C8.93337 8.56901 8.99267 8.24886 9.17573 8.39602C8.99267 8.24111 8.93337 8.56901 8.79931 8.50704C8.70003 8.49024 8.6025 8.46431 8.50797 8.42959C8.33998 8.51714 8.14907 8.5505 7.9614 8.52512C8.035 8.46054 8.12492 8.41748 8.22131 8.40063C8.31771 8.38379 8.41688 8.3938 8.50797 8.42959C8.57131 8.39328 8.62383 8.34069 8.66009 8.27726L8.79931 8.33664C8.90501 8.2721 9.00556 8.19722 9.10353 8.13784C8.76151 8.20228 8.42394 8.28852 8.09288 8.39602C6.98409 8.71941 5.99328 9.35905 5.24141 10.2369C4.82584 10.727 4.57503 11.3358 4.52458 11.9767C4.47414 12.6177 4.62662 13.2583 4.96039 13.8076C5.73384 15.0339 6.97138 15.6872 8.15992 16.1312C10.6479 16.9264 12.9553 16.4901 15.5619 15.7001C16.2341 15.4404 16.8357 15.0255 17.3176 14.4892C17.8662 13.9033 18.2466 13.1798 18.4185 12.3953C18.2638 10.6345 17.3022 11.6621 17.2893 11.6207C17.0171 11.8702 16.7872 12.1623 16.6086 12.4857C16.3718 12.9139 15.9935 13.2462 15.5387 13.4255C16.3714 12.9736 15.3402 14.3162 14.2651 14.2C12.927 14.0425 11.3594 14.9384 9.8048 14.595C9.4387 14.5124 9.04939 14.4788 8.62915 14.3627C6.48925 13.5416 5.10477 12.243 6.85793 10.6939C7.25725 10.2917 7.68272 9.91656 8.13156 9.57076C8.49421 9.41883 8.87445 9.31301 9.26338 9.25577C9.76613 9.13185 10.1941 8.96919 10.6221 8.84785C10.1613 8.93644 9.70731 9.05722 9.26338 9.2093C8.92048 9.31 9.4387 8.90207 9.67589 8.79363C9.77128 8.73167 9.97238 8.92014 10.0652 8.85818C10.2904 8.80027 10.5104 8.7234 10.7226 8.62839C10.8206 8.57675 10.8258 8.77297 10.8747 8.74974C11.2022 8.69294 11.4574 8.41926 11.674 8.49155C11.8262 8.51861 11.9768 8.55394 12.1252 8.59741C12.2146 8.61957 12.3063 8.63169 12.3985 8.63355L12.5892 8.59741C12.5536 8.53212 12.5325 8.45991 12.5274 8.3857C12.6293 8.41312 12.7293 8.44763 12.8264 8.48897C12.7293 8.44763 12.6293 8.41312 12.5274 8.3857C12.5325 8.45991 12.5536 8.53212 12.5892 8.59741C13.0787 8.53287 13.5745 8.53287 14.064 8.59741V8.57934C13.7742 8.52241 13.4973 8.41304 13.2467 8.25661C13.3653 8.32632 13.3369 8.37795 13.1951 8.35988L13.0946 8.24628C13.2246 8.22297 13.3581 8.22773 13.4861 8.26023C13.6142 8.29273 13.7338 8.35223 13.8371 8.43475L14.015 8.41668C14.0846 8.46315 14.064 8.52512 14.0665 8.57934L14.2341 8.6129C14.1077 8.47616 13.9648 8.35562 13.8087 8.25402" fill="#F6A800"/>
<path d="M10.8078 7.9832L10.947 7.95996C10.7562 7.95996 10.568 7.97803 10.3746 7.9832C10.4855 8.07098 10.6324 8.02967 10.8078 7.9832Z" fill="#F6A800"/>
<path d="M11.9551 10.1V9.75148C11.9512 9.4476 11.9771 9.14407 12.0324 8.84525C12.0891 7.67826 12.1304 6.49836 12.1046 5.30038H12.0582V4.44838C12.0684 3.85168 12.1201 3.25641 12.2129 2.6669C12.3116 2.18749 12.3668 1.70012 12.3779 1.21074C12.3828 1.04657 12.3508 0.8834 12.2843 0.733257C12.2178 0.583115 12.1185 0.449832 11.9937 0.343243C11.8435 0.176052 11.6469 0.0574192 11.4291 0.00244141C11.3131 0.00244141 11.0682 0.289025 10.6995 0.864776C10.3308 1.44053 10.14 1.77617 10.14 1.86653C10.14 1.90526 10.1813 2.09632 10.2612 2.44228C10.362 3.01218 10.4027 3.59112 10.3824 4.16954C10.3806 4.31299 10.3589 4.45549 10.3179 4.59296V17.6416C10.3411 18.0418 10.3592 18.5117 10.3695 19.0642C10.3953 21.0316 10.4494 22.3225 10.5242 22.937C10.6066 23.6223 10.6454 24.3122 10.6402 25.0024C11.2499 23.019 11.6601 20.9796 11.8648 18.9144C11.8983 18.5814 11.9293 18.2767 11.9628 17.9902C11.6405 15.3102 11.8004 12.7154 11.9628 10.1" fill="#1A171B"/>
<path d="M9.77651 14.6261C9.77651 14.6261 11.9628 14.6261 12.3985 14.4531L12.5713 16.3869C12.5713 16.3869 10.2174 16.7381 9.51611 16.3869L9.77393 14.6261" fill="#F6A800"/>
<path d="M1.78408 22.8364L1.74541 22.5575C1.48759 20.8458 1.42829 19.1185 1.29938 17.2002C1.18594 15.8551 1.20399 14.3137 1.20399 12.9634C1.2504 16.1597 1.34837 19.5213 1.84854 22.5421C1.90909 22.1753 1.92468 21.8024 1.89494 21.4319C1.76861 20.3991 1.72478 19.3845 1.63712 18.3724H1.51079C1.49274 15.4988 1.21172 12.8059 1.43087 9.922C1.44634 10.0227 1.47728 9.96588 1.49532 9.94265C1.51595 9.92199 1.53142 9.94265 1.52626 10.1131C1.52626 9.93748 1.52626 9.92199 1.49532 9.94265C1.41282 12.7827 1.45923 15.4342 1.62939 18.2536C1.37157 13.8645 1.53915 9.62508 1.71447 5.1146C1.71447 4.92096 1.73509 4.53885 1.74541 4.34005C1.68613 3.56687 1.67838 2.79059 1.7222 2.01639C1.54947 2.20228 1.26329 1.4174 1.25555 2.96134H1.12664C1.03383 1.41223 0.611006 0.808086 0.404752 2.34687C0.195918 4.07928 0.219121 6.40294 0.103102 8.54329C0.0206003 10.0924 -0.0258056 11.6415 0.0360708 13.1906C0.139198 15.3284 0.146933 17.6598 0.412486 19.7846C0.471784 20.5592 0.492409 21.9224 0.621318 22.3019C0.693507 22.5782 0.760541 22.5808 0.835308 22.5343C0.703821 21.264 0.629052 19.9963 0.554285 18.7442C0.451157 17.195 0.355765 15.664 0.296466 14.1278C0.386703 15.6305 0.474361 17.177 0.554285 18.7442C0.641943 19.9886 0.742492 21.2434 0.894605 22.4878C0.95906 22.4362 1.02094 22.3871 1.09055 22.4568C1.09055 22.4568 1.12406 22.839 1.13696 23.0352C1.36384 23.7865 1.57525 23.5696 1.70416 23.172C1.72994 23.0713 1.76088 22.9603 1.78408 22.8338" fill="#E2001A"/>
<path d="M9.07525 2.26409H8.96439C8.23734 2.21245 7.52834 2.09368 6.73684 2.10917C6.18253 2.13499 5.55861 2.08594 5.01203 2.08594C6.30113 2.02139 7.6753 2.12725 8.97729 2.16339C8.85769 2.04905 8.70699 1.97269 8.54415 1.94394C8.10328 1.88197 7.6753 1.88456 7.25505 1.83808C7.25763 1.88194 7.25763 1.9259 7.25505 1.96976C6.06393 1.77354 4.96305 2.03172 3.79771 1.89746C3.83896 1.88197 3.81318 1.85357 3.79771 1.83292C3.79771 1.81485 3.79771 1.79935 3.86732 1.79677C3.79771 1.79677 3.79255 1.81485 3.79771 1.83292C4.95016 1.83292 6.03557 1.80968 7.21896 1.83292C5.38587 1.74514 3.66106 1.78128 1.86149 1.83292H1.53922C1.24551 1.9292 0.938153 1.97715 0.629117 1.97492C0.70904 2.14016 0.404815 2.46805 1.01842 2.39834V2.52744C0.407393 2.703 0.167621 3.16257 0.79412 3.28133C1.50312 3.41301 2.43385 3.24519 3.28207 3.28133C3.8906 3.31015 4.50036 3.29894 5.10743 3.24777C5.94018 3.16257 6.83739 3.2142 7.66241 3.19613C7.96406 3.19613 8.45649 3.38202 8.61892 3.31231C8.73494 3.28908 8.74783 3.22195 8.74783 3.14191C8.26329 3.04818 7.77331 2.98523 7.28084 2.95344C6.67889 2.93014 6.07607 2.94567 5.47611 2.99991C6.0746 2.92377 6.67923 2.9082 7.28084 2.95344C7.77081 2.96898 8.25962 3.01034 8.74525 3.07737C8.73723 3.04367 8.73607 3.00871 8.74183 2.97455C8.74759 2.9404 8.76015 2.90776 8.77876 2.87857L9.00306 2.92246C9.33823 2.8166 9.32534 2.58165 9.19643 2.40609C9.16549 2.36478 9.12424 2.3183 9.09073 2.27441" fill="#E2001A"/>
<path d="M0.605888 23.007H0.714171C1.41544 23.007 2.09866 23.0922 2.85922 23.069C3.39291 23.038 3.9962 23.0871 4.52215 23.0974C3.26915 23.1387 1.94397 23.0509 0.709015 23.0974C0.830137 23.2002 0.977425 23.2672 1.13441 23.291C1.55208 23.3169 1.96201 23.3143 2.36679 23.3427V23.211C3.50893 23.3814 4.57629 23.1387 5.70296 23.3014C5.66171 23.3194 5.68749 23.3478 5.70296 23.3659C5.70296 23.3866 5.70296 23.402 5.63851 23.402C5.70812 23.402 5.71327 23.3866 5.70296 23.3659C4.58918 23.3375 3.54502 23.3478 2.41319 23.3427C4.16636 23.3969 5.83703 23.4382 7.59019 23.4227H7.89184C8.17984 23.3293 8.48121 23.284 8.7839 23.2884C8.70913 23.1232 9.0082 22.7953 8.40748 22.865V22.7334C9.00562 22.5681 9.23508 22.106 8.6292 21.982C7.95114 21.8478 7.04878 21.982 6.23149 21.9304C5.63923 21.8891 5.04481 21.8891 4.45254 21.9304C3.63783 22.0156 2.75609 21.9485 1.94397 22.0053C1.64747 22.0208 1.14988 21.8529 0.995192 21.933C0.97555 21.9367 0.956833 21.9443 0.94011 21.9552C0.923387 21.9662 0.908987 21.9804 0.897733 21.9969C0.886479 22.0134 0.878592 22.0321 0.874523 22.0517C0.870454 22.0713 0.870283 22.0915 0.874019 22.1111V22.1111C1.35872 22.1705 1.84342 22.2118 2.32296 22.2325C2.91318 22.2428 3.50354 22.2221 4.09159 22.1705C3.5054 22.2479 2.91312 22.2687 2.32296 22.2325C1.84342 22.2325 1.3613 22.2118 0.884332 22.1783C0.901433 22.2451 0.893164 22.3159 0.861128 22.3771L0.639403 22.3461C0.557151 22.3652 0.485774 22.416 0.440852 22.4876C0.395931 22.5592 0.381113 22.6457 0.399632 22.7282C0.412576 22.789 0.443056 22.8446 0.487291 22.8883L0.603309 23.0148" fill="#E2001A"/>
<path d="M22.4251 2.02395L22.3116 2.0446C21.6104 2.14013 20.9143 2.09883 20.1331 2.15304C19.5621 2.18661 18.9896 2.18661 18.4186 2.15304C19.7077 2.11948 21.0715 2.16853 22.3091 1.9465C22.1768 1.85809 22.022 1.80968 21.863 1.80707C21.4428 1.83031 21.0303 1.8458 20.6204 1.85613V1.9878C19.4524 1.87162 18.3593 2.10657 17.1914 1.92326C17.23 1.9026 17.2094 1.87937 17.1914 1.85613C17.1914 1.83548 17.1914 1.81998 17.261 1.82256C17.1888 1.82256 17.181 1.83548 17.1914 1.85613C18.3387 1.91035 19.4189 1.9026 20.561 1.85613C18.7847 1.89228 17.065 1.78126 15.2268 1.76318H14.9122C14.6074 1.85181 14.2911 1.89445 13.9738 1.8897C14.0511 2.05235 13.7392 2.38025 14.3631 2.31312V2.44737C13.7392 2.60487 13.5071 3.06185 14.1311 3.19869C14.8246 3.33036 15.7579 3.19869 16.6113 3.28905C17.2333 3.35009 17.8591 3.36218 18.483 3.3252C19.339 3.24258 20.2878 3.29938 21.1411 3.17287C21.4531 3.14964 22.0023 3.24775 22.1724 3.15222C22.2105 3.14079 22.2428 3.1151 22.2625 3.08048C22.2821 3.04586 22.2878 3.00498 22.2781 2.96632V2.96632C21.7625 2.96632 21.2468 2.96632 20.7312 2.98181C20.1099 3.00763 19.4859 3.03861 18.8646 3.09025C19.4842 3.01811 20.1074 2.98191 20.7312 2.98181C21.2468 2.956 21.7419 2.93792 22.2472 2.90178C22.2214 2.83714 22.2214 2.76503 22.2472 2.70039H22.4792C22.7912 2.54032 22.7138 2.30795 22.5591 2.1453L22.4251 2.03428" fill="#E2001A"/>
<path d="M13.7597 23.5413L14.1516 23.5232C16.57 23.4329 19.0038 23.5749 21.7109 23.5078H22.211L22.6261 23.105V22.1445C22.6261 21.6437 22.6261 21.1325 22.6442 20.6213V17.6263C22.6751 18.7546 22.6931 19.8958 22.688 21.0473C22.688 21.6178 22.688 22.1936 22.6699 22.7719V23.1101C22.7679 23.0172 21.814 23.9415 22.2162 23.5491H20.8472C18.5629 23.5671 16.3121 23.5232 14.1722 23.6343C14.683 23.7261 15.2003 23.7771 15.7192 23.7866C17.1655 23.7866 18.6067 23.8047 20.0402 23.8047V23.6756C20.5558 23.6988 21.0508 23.7091 21.551 23.7117H22.2162C21.6593 24.2539 22.9896 22.9707 22.8427 23.0998V23.0198L22.8582 22.2685C22.8762 21.2693 22.8582 20.2805 22.8427 19.2916C22.8066 17.3165 22.737 15.3465 22.7757 13.3095C22.7989 13.4541 22.8195 13.3689 22.8427 13.3353C22.8607 13.3095 22.8762 13.3353 22.8788 13.5935C22.8788 13.3353 22.8607 13.3224 22.8427 13.3353C22.8659 15.3414 22.9123 17.2829 22.9303 19.2271V22.1445V22.8829V23.0869C23.0825 22.9397 21.6 24.3778 22.2265 23.7685C22.5488 23.4613 21.5175 24.4656 22.9458 23.0766V22.7848C22.963 22.0103 22.9733 21.2357 22.9767 20.4612C22.9767 18.9121 22.9767 17.381 22.9407 15.8423C22.8917 12.7724 22.8195 9.6923 22.8994 6.54762C22.8994 6.28943 22.9174 5.7395 22.9303 5.47357C22.8831 4.39734 22.908 3.31914 23.0051 2.24626C22.8272 2.50445 22.5771 1.39167 22.4895 3.55784H22.3606C22.3606 1.38651 21.997 0.508684 21.6696 2.68776C21.337 5.14568 21.4118 8.43495 21.4118 11.4325C21.4118 13.6115 21.4376 15.7803 21.5252 17.9413C21.5923 19.4284 21.6052 20.9827 21.5845 22.5292V23.0456L22.2497 22.3976H20.445C19.6715 22.3976 18.9238 22.4182 18.1813 22.4337C17.1036 22.4337 15.2087 22.2995 14.6647 22.3976C14.2754 22.4415 14.2599 22.5137 14.3218 22.5886C16.1033 22.5886 17.8745 22.648 19.6148 22.6609L21.221 22.6454H22.2265C21.3912 23.4587 21.9945 22.8675 21.8088 23.0482V22.4544C21.8088 21.3803 21.7934 20.3054 21.7624 19.2296C21.8088 20.283 21.8372 21.3467 21.8269 22.4234V23.0456C21.4659 23.3941 22.3142 22.5705 22.2265 22.6557H19.5967C17.859 22.6557 16.111 22.6248 14.3604 22.6557C14.4249 22.7229 14.4868 22.7926 14.3785 22.852H13.5664C12.4861 23.0172 12.7594 23.2444 13.3086 23.4071C13.4452 23.4432 13.5973 23.4794 13.77 23.5181" fill="#E2001A"/>
</g>
<defs>
<clipPath id="clip0_2319_124">
<rect width="23" height="25" fill="white"/>
</clipPath>
</defs>
</svg>
