<svg width="18" height="32" viewBox="0 0 18 32" fill="none" xmlns="http://www.w3.org/2000/svg">
<g clip-path="url(#clip0_2319_142)">
<path d="M8.99974 9.741C9.23711 9.04522 8.99974 7.46277 8.99974 7.46277C9.39535 8.07851 9.62141 9.92573 9.62141 9.92573C9.81921 8.57726 8.99974 6.16048 8.99974 6.16048C9.72031 7.28112 10.5737 10.717 10.5737 10.717C10.5341 8.9036 8.99974 4.76583 8.99974 4.76583C9.95202 5.74177 12.0035 12.4349 12.0035 12.4349C11.7209 8.9036 8.99974 3.27574 8.99974 3.27574C10.9778 5.46161 13.552 14.4329 13.552 14.4329C13.0434 9.36848 9.10712 2.04733 8.99974 1.83798C13.049 7.92765 14.6512 15.6459 14.6512 15.6459C14.606 10.0766 8.99974 0.350972 8.99974 0.350972C14.8349 8.35559 15.7815 16.6681 15.7815 16.6681C16.3467 10.132 9.98593 0.304791 9.98593 0.304791C17.5646 10.4645 16.926 18.2013 16.926 18.2013C18.2964 11.7329 11.0654 0 11.0654 0C17.3526 6.75467 17.9517 15.375 17.9517 15.375C18.1903 19.0022 17.4883 22.6293 15.9256 25.8426C13.9674 29.8726 8.99974 32 8.99974 32C8.99974 32 4.03209 29.8634 2.07102 25.8426C0.508379 22.6293 -0.193681 19.0022 0.0449584 15.375C0.0449584 15.375 0.646842 6.75467 6.93695 0C6.93695 0 -0.299783 11.7329 1.0707 18.2013C1.0707 18.2013 0.434911 10.4645 8.01921 0.304791C8.01921 0.304791 1.66128 10.132 2.22361 16.6681C2.22361 16.6681 3.16176 8.35559 9.0054 0.350972C9.0054 0.350972 3.38499 10.0766 3.35391 15.6459C3.35391 15.6459 4.97023 7.92765 9.0054 1.83798C8.89802 2.04733 4.96741 9.36848 4.45312 14.436C4.45312 14.436 7.0189 5.46469 9.0054 3.27881C9.0054 3.27881 6.27855 8.90668 5.9988 12.4379C5.9988 12.4379 8.05312 5.74485 9.0054 4.7689C9.0054 4.7689 7.46819 8.90668 7.42863 10.72C7.42863 10.72 8.27635 7.2842 9.0054 6.16356C9.0054 6.16356 8.1831 8.58033 8.38091 9.9288C8.38091 9.9288 8.60697 8.08159 9.0054 7.46585C9.0054 7.46585 8.76521 9.0483 9.0054 9.74408L8.99974 9.741Z" fill="#1F9549"/>
<path d="M8.99994 29.9591C5.93401 29.9591 3.453 27.1882 3.453 22.3331C3.453 17.478 5.93401 12.3735 8.99994 12.3735C12.0659 12.3735 14.5441 17.4749 14.5469 22.3331C14.5497 27.1913 12.0631 29.9591 8.99994 29.9591Z" fill="white"/>
<path d="M8.99996 29.3861C6.13465 29.3861 3.81189 26.7969 3.81189 22.2558C3.81189 17.7147 6.13465 12.9458 8.99996 12.9458C11.8653 12.9458 14.1739 17.7147 14.1739 22.2558C14.1739 26.7969 11.8624 29.3861 8.99996 29.3861Z" fill="#F79433"/>
<path d="M10.8735 27.4587C10.0258 27.8005 9.6754 27.351 9.00005 27.351C8.3247 27.351 8.12689 27.8005 7.10962 27.4372C5.75609 26.9538 5.01575 24.5401 5.01575 22.7853C5.01575 20.193 6.79879 18.8384 9.00005 18.8384C11.2013 18.8384 12.9815 20.193 12.9815 22.773C12.9815 24.5555 12.2355 26.9076 10.8735 27.4587Z" fill="white"/>
<path d="M10.2603 26.8679C9.3702 26.8679 9.29108 25.1561 8.99155 25.1561C8.75418 25.1561 8.67506 26.9295 7.88385 26.9295C6.62075 26.9295 5.40002 24.8944 5.40002 22.9272C5.40002 20.495 6.9118 19.4082 8.99155 19.4082C11.0713 19.4082 12.5972 20.495 12.5972 22.9272C12.5972 24.8267 11.3482 26.8679 10.2603 26.8679Z" fill="#2A2664"/>
</g>
<defs>
<clipPath id="clip0_2319_142">
<rect width="18" height="32" fill="white"/>
</clipPath>
</defs>
</svg>
