<svg width="30" height="28" viewBox="0 0 30 28" fill="none" xmlns="http://www.w3.org/2000/svg">
<g clip-path="url(#clip0_2319_151)">
<path d="M16.2404 12.0969L16.2882 11.9878L16.2404 12.0969Z" fill="#8162A2"/>
<path d="M15.7751 17.4283C15.7538 17.2973 15.7299 17.1555 15.7113 17.019C15.7299 17.1609 15.7538 17.2973 15.7751 17.4283Z" fill="#8162A2"/>
<path d="M15.8309 17.7282L15.807 17.6055L15.8309 17.7282Z" fill="#8162A2"/>
<path d="M14.8206 16.9507C14.794 17.1117 14.7647 17.2672 14.7355 17.4145C14.7647 17.2672 14.794 17.1171 14.8206 16.9507Z" fill="#8162A2"/>
<path d="M14.0468 11.2324C14.0733 11.2788 14.0999 11.3279 14.1239 11.377C14.0999 11.3279 14.0733 11.2788 14.0468 11.2324Z" fill="#8162A2"/>
<path d="M16.4663 11.6006L16.5062 11.5215L16.4663 11.6006Z" fill="#8162A2"/>
<path d="M13.7756 10.7549C13.7969 10.7904 13.8155 10.8258 13.8368 10.8586C13.8075 10.8258 13.8075 10.7904 13.7756 10.7549Z" fill="#8162A2"/>
<path d="M15.0971 12.2607C15.1878 12.5392 15.2642 12.8224 15.3257 13.1092C15.3816 12.88 15.448 12.6481 15.5251 12.4189C15.859 11.4678 16.3412 10.5786 16.9529 9.78615V9.78615C16.9264 9.51333 16.8918 9.27324 16.8572 9.02224C16.8509 8.94512 16.8394 8.86854 16.8227 8.79307C16.7934 8.61028 16.7642 8.43021 16.7323 8.24742C16.7263 8.17545 16.7139 8.10421 16.695 8.03462C16.6498 7.80271 16.602 7.57354 16.5541 7.35528C16.5036 7.13157 16.4504 6.91603 16.3972 6.70869L16.3494 6.53135C16.3086 6.38221 16.2687 6.23761 16.2297 6.09756L16.1819 5.93386C16.1287 5.7538 16.0755 5.57919 16.025 5.41823C15.8214 4.77976 15.5862 4.15236 15.3204 3.53846C15.292 3.4748 15.2655 3.41478 15.2406 3.3584L15.1476 3.57393L15.1077 3.66396L15.0386 3.83039C15.0226 3.86858 15.0067 3.91223 14.988 3.95316C14.9694 3.99408 14.9455 4.06501 14.9216 4.12231L14.8631 4.27236C14.8418 4.33238 14.8179 4.39513 14.7939 4.45788C14.77 4.52063 14.7195 4.65704 14.6823 4.76345L14.6131 4.95988C14.5866 5.03354 14.5626 5.10993 14.536 5.18632C14.5094 5.26272 14.4988 5.30091 14.4775 5.36093C14.4563 5.42095 14.427 5.52463 14.4004 5.6092L14.3446 5.792L14.2648 6.06482C14.2462 6.12484 14.2303 6.18486 14.2143 6.24488C14.1213 6.575 14.0309 6.92695 13.9484 7.29526L13.9006 7.50261C13.8793 7.60628 13.858 7.71268 13.8341 7.81908C13.8102 7.92549 13.8048 7.97187 13.7889 8.04826C13.7729 8.12465 13.749 8.26106 13.7304 8.37019C13.7118 8.47932 13.7038 8.53661 13.6879 8.61846C13.6719 8.70031 13.6533 8.83399 13.6373 8.94312C13.6214 9.05225 13.6028 9.21595 13.5842 9.33872C13.587 9.38769 13.5807 9.43678 13.5656 9.48332C14.2326 10.3085 14.7512 11.249 15.0971 12.2607Z" fill="#8162A2"/>
<path d="M14.302 11.7534L14.3685 11.9007L14.302 11.7534Z" fill="#8162A2"/>
<path d="M16.7323 11.115L16.7509 11.085L16.7323 11.115Z" fill="#8162A2"/>
<path d="M15.1609 19.6735C15.0678 19.4525 14.9774 19.2233 14.895 18.9941C14.9774 19.2288 15.0678 19.4525 15.1609 19.6735Z" fill="#38A861"/>
<path d="M15.4028 19.4526L15.3762 19.5181L15.4028 19.4526Z" fill="#38A861"/>
<path d="M15.2406 19.8452C15.2832 19.7524 15.331 19.6378 15.3842 19.5123L15.4108 19.4468C15.4666 19.3132 15.5251 19.174 15.5863 19.013C15.4478 18.5659 15.3368 18.1103 15.2539 17.6489C15.1565 18.102 15.0349 18.5492 14.8896 18.9885C14.9774 19.2177 15.0678 19.4468 15.1555 19.6678L15.2406 19.8452Z" fill="#38A861"/>
<path d="M12.3664 4.94635C12.2654 5.0773 12.1696 5.19735 12.0846 5.30102L10.7551 6.93797C11.6109 7.48887 12.393 8.15198 13.0816 8.91049C13.3875 6.7604 14.0097 4.6704 14.9269 2.71191C13.9431 2.93017 12.97 4.17153 12.3664 4.94635Z" fill="#38A861"/>
<path d="M7.79578 10.5693C8.41185 10.7351 9.01313 10.9542 9.59317 11.2241C9.59792 10.041 9.76896 8.86487 10.101 7.73193L7.79578 10.5693Z" fill="#38A861"/>
<path d="M6.21912 15.0326C6.77128 14.9999 7.32508 15.0108 7.8756 15.0654C7.43103 13.8901 7.17946 12.6474 7.13111 11.3877L3.84741 15.4391C4.61881 15.2046 5.41533 15.0681 6.21912 15.0326V15.0326Z" fill="#38A861"/>
<path d="M3.66122 15.794C3.64798 15.7629 3.63989 15.7297 3.63729 15.6958L1.0449 18.8988C0.513122 19.5535 0.361567 19.9901 0.545028 20.3775C1.89712 19.2836 3.45094 18.4818 5.11296 18.0203C4.94811 17.8211 4.80187 17.6274 4.66361 17.4419L4.645 17.4173C4.2782 16.9208 3.95605 16.3912 3.68249 15.8349L3.66122 15.794Z" fill="#38A861"/>
<path d="M15.5597 2.72559C16.5008 4.77071 17.1285 6.95262 17.4209 9.19426C18.1167 8.39207 18.9134 7.68838 19.79 7.1017V7.1017L18.3276 5.30378C18.2425 5.20011 18.1468 5.07734 18.0431 4.94638C17.4688 4.1852 16.5222 2.97658 15.5597 2.72559Z" fill="#38A861"/>
<path d="M20.8163 11.2569C21.4041 10.9792 22.0144 10.7546 22.6403 10.5857L20.3802 7.80566C20.6856 8.92878 20.8325 10.091 20.8163 11.2569V11.2569Z" fill="#38A861"/>
<path d="M22.5818 15.0627C23.1209 15.0104 23.6631 15.0004 24.2037 15.0326C25.0058 15.0711 25.8005 15.2094 26.5701 15.4446V15.4446L23.3263 11.4341C23.2726 12.6772 23.0212 13.9029 22.5818 15.0627V15.0627Z" fill="#38A861"/>
<path d="M29.3938 18.8984L26.7881 15.6899C26.7855 15.7256 26.7774 15.7606 26.7642 15.7936L26.7482 15.8264C26.3572 16.6094 25.877 17.342 25.3177 18.009C26.9912 18.4672 28.5563 19.2701 29.9176 20.3689C30.1516 19.8914 29.8671 19.4795 29.3938 18.8984Z" fill="#38A861"/>
<path d="M6.20581 18.3857L6.21005 18.39L6.20581 18.3857Z" fill="#8162A2"/>
<path d="M6.76687 18.8931L6.64722 18.7949L6.76687 18.8931Z" fill="#8162A2"/>
<path d="M7.87286 19.6759L7.70801 19.5723L7.87286 19.6759Z" fill="#8162A2"/>
<path d="M11.7123 21.1932C10.5261 21.2121 9.34908 20.978 8.25573 20.5057C7.32976 20.0768 6.48811 19.4776 5.77234 18.7378L5.83084 18.8087L2.1616 19.9382C1.97282 20.0528 1.79734 20.1647 1.64312 20.2683C1.51018 20.3584 1.39319 20.4429 1.28949 20.5193L1.23631 20.5575L0.991699 20.7431C1.06349 20.8003 1.14857 20.8658 1.25759 20.9368C1.71525 21.278 2.19495 21.587 2.69337 21.8616C3.79415 22.47 5.50646 23.1957 7.39691 23.1957C7.57437 23.1989 7.75187 23.1925 7.92868 23.1766L8.09885 23.1603C8.21749 23.1548 8.33563 23.1411 8.45248 23.1194L8.64126 23.0893C8.75027 23.073 8.85929 23.0539 8.96564 23.0321L9.15176 22.9939C9.26078 22.972 9.36713 22.9447 9.47349 22.9175L9.64365 22.8738C9.75799 22.8438 9.86966 22.8083 9.98133 22.7729L10.1116 22.7347C10.4227 22.631 10.7205 22.5191 11.0023 22.3964L11.1246 22.3445L11.4145 22.2136L11.558 22.1426L11.8 22.0226L11.9462 21.9462C12.018 21.9107 12.0872 21.8725 12.1563 21.8344L12.2919 21.7552L12.4727 21.6488L12.6189 21.5615L12.7439 21.4824C12.9699 21.3405 13.172 21.2096 13.3421 21.0841C13.039 21.1305 12.6987 21.1687 12.3265 21.1905C12.1324 21.185 11.9196 21.1932 11.7123 21.1932Z" fill="#8162A2"/>
<path d="M7.30657 19.2997L7.14172 19.1797L7.30657 19.2997Z" fill="#8162A2"/>
<path d="M5.83086 18.8083L5.77236 18.7374C5.69791 18.6637 5.61549 18.5901 5.5437 18.5137C4.35028 18.8026 3.20884 19.2833 2.16162 19.9378L5.83086 18.8083Z" fill="#8162A2"/>
<path d="M10.202 12.1899C10.218 12.3264 10.2339 12.4628 10.2552 12.6019C10.2286 12.4628 10.2153 12.3264 10.202 12.1899Z" fill="#8162A2"/>
<path d="M10.5478 13.8787C10.4893 13.6959 10.4388 13.5131 10.3936 13.333C10.4388 13.5131 10.4893 13.6959 10.5478 13.8787Z" fill="#8162A2"/>
<path d="M8.82483 15.7993L9.05083 15.8512C8.97461 15.8382 8.89916 15.8209 8.82483 15.7993V15.7993Z" fill="#8162A2"/>
<path d="M10.351 13.1636C10.3191 13.0217 10.2925 12.8908 10.2686 12.7407C10.2978 12.8799 10.3244 13.0245 10.351 13.1636Z" fill="#8162A2"/>
<path d="M10.9067 14.7598C10.8909 14.7296 10.8767 14.6987 10.8641 14.667C10.8767 14.6987 10.8909 14.7296 10.9067 14.7598Z" fill="#8162A2"/>
<path d="M11.832 16.2739L11.7522 16.1675L11.832 16.2739Z" fill="#8162A2"/>
<path d="M11.3453 15.5621L11.2736 15.4448L11.3453 15.5621Z" fill="#8162A2"/>
<path d="M10.3031 15.7012C10.5395 15.8077 10.7702 15.927 10.9944 16.0586C10.1692 14.8197 9.69181 13.3719 9.61441 11.8734C9.09905 11.619 8.56577 11.4047 8.01909 11.2323L7.83297 11.175L7.67078 11.1313V11.3578C7.68941 11.8473 7.74004 12.3349 7.82233 12.8174C7.84626 12.9675 7.87817 13.1284 7.91539 13.2976C7.9216 13.3438 7.93138 13.3894 7.94464 13.434C7.97655 13.5649 8.00845 13.7068 8.04568 13.8378C8.05365 13.8912 8.06794 13.9434 8.08822 13.9933C8.13076 14.1379 8.17862 14.2879 8.22914 14.438L8.27168 14.5689C8.34081 14.7626 8.41792 14.9618 8.503 15.1582C9.12198 15.2649 9.7263 15.4471 10.3031 15.7012V15.7012Z" fill="#8162A2"/>
<path d="M13.3077 17.8699L13.2758 17.8398L13.3077 17.8699Z" fill="#8162A2"/>
<path d="M9.32471 15.9385C9.58224 16.0143 9.83526 16.1054 10.0825 16.2113C9.83526 16.1054 9.58224 16.0143 9.32471 15.9385V15.9385Z" fill="#8162A2"/>
<path d="M13.5868 19.2832C13.6107 19.3159 13.6293 19.346 13.6506 19.3787C13.6293 19.346 13.6107 19.3159 13.5868 19.2832Z" fill="#8162A2"/>
<path d="M12.3344 16.8906C12.3132 16.866 12.2919 16.8442 12.2706 16.8169C12.2919 16.8442 12.3132 16.866 12.3344 16.8906Z" fill="#8162A2"/>
<path d="M13.7577 18.2493L13.733 18.2329L13.7577 18.2493Z" fill="#8162A2"/>
<path d="M16.7589 18.1758L16.7323 18.2085L16.7589 18.1758Z" fill="#8162A2"/>
<path d="M17.2109 17.769L17.155 17.8209L17.2109 17.769Z" fill="#8162A2"/>
<path d="M20.0771 12.9375C20.0715 13.0026 20.0581 13.0667 20.0372 13.1285C20.0532 13.0657 20.0638 13.0003 20.0771 12.9375Z" fill="#8162A2"/>
<path d="M20.3403 16.2167C20.5922 16.1111 20.8496 16.02 21.1114 15.9438C20.8496 16.02 20.5922 16.1111 20.3403 16.2167Z" fill="#8162A2"/>
<path d="M19.3406 16.1078C20.1452 15.6272 21.0295 15.3035 21.9489 15.1529V15.1529C22.034 14.9592 22.1085 14.7628 22.1776 14.5718C22.1776 14.5281 22.2042 14.4872 22.2201 14.4463C22.2706 14.2935 22.3185 14.1434 22.361 13.9961L22.4009 13.8461C22.4382 13.7069 22.4727 13.5732 22.502 13.4368L22.5339 13.3059C22.5684 13.1395 22.6003 12.9758 22.6269 12.8257C22.7066 12.3428 22.7572 11.8554 22.7785 11.3661V11.1396L22.6163 11.1833C21.9844 11.3708 21.3696 11.6146 20.779 11.9117V11.9117C20.6722 13.4169 20.1756 14.8655 19.3406 16.1078V16.1078Z" fill="#8162A2"/>
<path d="M18.6546 16.1265C18.6307 16.1619 18.6041 16.1947 18.5802 16.2274C18.6022 16.1917 18.6271 16.1579 18.6546 16.1265V16.1265Z" fill="#8162A2"/>
<path d="M17.6788 17.3027C17.6678 17.3168 17.6553 17.3296 17.6416 17.3409C17.6553 17.3296 17.6678 17.3168 17.6788 17.3027V17.3027Z" fill="#8162A2"/>
<path d="M19.1253 15.4146L19.0535 15.5346L19.1253 15.4146Z" fill="#8162A2"/>
<path d="M18.1547 16.7734L18.1122 16.8198L18.1547 16.7734Z" fill="#8162A2"/>
<path d="M19.5161 14.6616L19.4709 14.7598L19.5161 14.6616Z" fill="#8162A2"/>
<path d="M16.7775 19.3731C16.7937 19.3456 16.8114 19.3192 16.8306 19.2939C16.8114 19.3192 16.7937 19.3456 16.7775 19.3731V19.3731Z" fill="#8162A2"/>
<path d="M21.6405 15.7886C21.5448 15.8104 21.4571 15.8404 21.3746 15.865C21.4597 15.8404 21.5501 15.824 21.6405 15.8049V15.7886Z" fill="#8162A2"/>
<path d="M23.7809 18.7896L23.6586 18.8932L23.7809 18.7896Z" fill="#8162A2"/>
<path d="M24.5785 18.8086C23.8785 19.5171 23.061 20.0917 22.1643 20.5056C21.0709 20.9778 19.8939 21.2119 18.7078 21.1931C18.5004 21.1931 18.2877 21.1931 18.075 21.174C17.7213 21.1522 17.3943 21.1167 17.1018 21.073C17.1656 21.1194 17.2347 21.1685 17.3092 21.2176L17.7054 21.4741L17.8277 21.5505L17.9659 21.6351L18.1547 21.7442L18.2956 21.8233L18.5137 21.9433L18.6572 22.017L18.9045 22.1425L19.0428 22.208L19.3353 22.3417L19.4549 22.3935C19.7367 22.5163 20.0345 22.6309 20.3456 22.7318L20.4626 22.7673C20.5769 22.8055 20.6966 22.8409 20.8162 22.8737L20.9784 22.9146L21.3028 22.9937L21.4863 23.0292C21.5926 23.051 21.7016 23.0701 21.8107 23.0865L21.9994 23.1165C22.1164 23.1329 22.2361 23.1438 22.3531 23.1547L22.5206 23.1711C22.6961 23.1711 22.8715 23.1902 23.0524 23.1902C24.9534 23.1902 26.6631 22.4644 27.7639 21.856C28.2629 21.5824 28.7426 21.2734 29.1997 20.9312L29.4655 20.7375L29.2156 20.5492L29.1677 20.5137C29.0614 20.4374 28.9444 20.3528 28.8088 20.26C28.6679 20.1645 28.5137 20.0663 28.3488 19.9626L24.5785 18.8086Z" fill="#8162A2"/>
<path d="M23.289 19.1851C23.2332 19.2287 23.1747 19.2696 23.1162 19.3106C23.1747 19.2696 23.2332 19.2287 23.289 19.1851Z" fill="#8162A2"/>
<path d="M22.7253 19.5723L22.5498 19.6814L22.7253 19.5723Z" fill="#8162A2"/>
<path d="M24.8844 18.5059C24.7887 18.6095 24.6797 18.7077 24.5786 18.8087L28.3542 19.9709C27.281 19.2962 26.1096 18.8016 24.8844 18.5059V18.5059Z" fill="#8162A2"/>
<path d="M14.8711 4.26968L14.9296 4.11963L14.8711 4.26968Z" fill="white"/>
<path d="M16.1819 5.93115L16.2297 6.09485L16.1819 5.93115Z" fill="white"/>
<path d="M16.3494 6.52881L16.3972 6.70615L16.3494 6.52881Z" fill="white"/>
<path d="M13.6346 8.93208C13.6506 8.82295 13.6692 8.71655 13.6852 8.60742C13.6692 8.71928 13.6506 8.82568 13.6346 8.93208Z" fill="white"/>
<path d="M14.988 3.95041C15.0066 3.90948 15.0226 3.86583 15.0386 3.82764C15.0226 3.86583 15.0066 3.90948 14.988 3.95041Z" fill="white"/>
<path d="M14.4004 5.60667C14.427 5.52209 14.4536 5.44025 14.4775 5.3584C14.4536 5.44025 14.427 5.52209 14.4004 5.60667Z" fill="white"/>
<path d="M14.6823 4.76064C14.7195 4.65424 14.7567 4.5533 14.7939 4.45508C14.7567 4.56694 14.7195 4.65424 14.6823 4.76064Z" fill="white"/>
<path d="M16.6951 8.03467C16.701 8.10664 16.7135 8.17788 16.7323 8.24747C16.7257 8.1756 16.7132 8.10442 16.6951 8.03467V8.03467Z" fill="white"/>
<path d="M13.9458 7.29549C14.0309 6.92718 14.1213 6.57524 14.2117 6.24512C14.1213 6.56978 14.0309 6.91899 13.9458 7.29549Z" fill="white"/>
<path d="M14.536 5.18348C14.5626 5.10708 14.5865 5.03069 14.6131 4.95703C14.5865 5.03069 14.5626 5.11254 14.536 5.18348Z" fill="white"/>
<path d="M13.8314 7.81111C13.8553 7.7047 13.8766 7.5983 13.8979 7.49463C13.8766 7.5983 13.8553 7.7047 13.8314 7.81111Z" fill="white"/>
<path d="M16.8226 8.78516C16.8289 8.86228 16.8405 8.93886 16.8572 9.01433C16.8466 8.93248 16.8333 8.86155 16.8226 8.78516Z" fill="white"/>
<path d="M14.2648 6.05652L14.3445 5.78369L14.2648 6.05652Z" fill="white"/>
<path d="M15.1077 3.66132L15.1475 3.57129L15.1077 3.66132Z" fill="white"/>
<path d="M13.7278 8.36197C13.7464 8.25284 13.7677 8.14644 13.7863 8.04004C13.7677 8.14644 13.7464 8.25284 13.7278 8.36197Z" fill="white"/>
<path d="M15.3842 19.5181C15.331 19.6436 15.2831 19.7582 15.2406 19.8509C15.2831 19.7582 15.331 19.6408 15.3842 19.5181Z" fill="white"/>
<path d="M15.5863 19.0269C15.5251 19.1851 15.4666 19.327 15.4108 19.4606C15.4666 19.3188 15.5251 19.1769 15.5863 19.0269Z" fill="white"/>
<path d="M10.0851 22.7397L9.95483 22.7779L10.0851 22.7397Z" fill="white"/>
<path d="M1.28687 20.522C1.39056 20.4456 1.50755 20.361 1.64049 20.271C1.50755 20.361 1.39056 20.4456 1.28687 20.522Z" fill="white"/>
<path d="M8.08301 23.1626L7.91284 23.179L8.08301 23.1626Z" fill="white"/>
<path d="M0.989136 20.7456L1.23375 20.5601L0.989136 20.7456Z" fill="white"/>
<path d="M8.62542 23.0947L8.43665 23.1193L8.62542 23.0947Z" fill="white"/>
<path d="M2.15369 19.938C1.96757 20.0526 1.7974 20.1644 1.64319 20.2681C1.7974 20.1644 1.97289 20.0526 2.16167 19.938H2.15369Z" fill="white"/>
<path d="M12.619 21.5557L12.4728 21.643L12.619 21.5557Z" fill="white"/>
<path d="M13.3475 21.0757C13.1773 21.1957 12.9753 21.3321 12.7493 21.474C12.9554 21.3522 13.1551 21.2192 13.3475 21.0757V21.0757Z" fill="white"/>
<path d="M12.292 21.7549L12.1431 21.8395L12.292 21.7549Z" fill="white"/>
<path d="M9.13583 22.999L8.94971 23.0372L9.13583 22.999Z" fill="white"/>
<path d="M9.62781 22.8789L9.45764 22.9226L9.62781 22.8789Z" fill="white"/>
<path d="M11.5421 22.145L11.3986 22.216L11.5421 22.145Z" fill="white"/>
<path d="M11.9463 21.9458L11.7974 22.0249L11.9463 21.9458Z" fill="white"/>
<path d="M11.1088 22.3496L10.9865 22.4014L11.1088 22.3496Z" fill="white"/>
<path d="M5.5464 18.5137C4.34959 18.8025 3.20464 19.2831 2.15369 19.9378V19.9378C3.20464 19.2831 4.34959 18.8025 5.5464 18.5137V18.5137Z" fill="white"/>
<path d="M8.05367 13.8432C8.01645 13.7041 7.98454 13.5704 7.95264 13.4395C7.98454 13.5704 8.01645 13.6986 8.05367 13.8432Z" fill="white"/>
<path d="M7.92338 13.2976C7.88616 13.1284 7.85425 12.9674 7.83032 12.8174C7.85425 12.9674 7.88616 13.1284 7.92338 13.2976Z" fill="white"/>
<path d="M7.83301 11.1748L8.01913 11.2321L7.83301 11.1748Z" fill="white"/>
<path d="M8.23711 14.4379C8.18659 14.2878 8.13873 14.1378 8.09619 13.9932C8.13873 14.1378 8.18659 14.2878 8.23711 14.4379Z" fill="white"/>
<path d="M22.6297 12.8174C22.6031 12.9674 22.5712 13.1311 22.5366 13.2976C22.5818 13.1311 22.6031 12.9674 22.6297 12.8174Z" fill="white"/>
<path d="M22.3637 13.9878C22.3212 14.1351 22.2733 14.2852 22.2228 14.438C22.2733 14.2852 22.3158 14.1351 22.3637 13.9878Z" fill="white"/>
<path d="M22.5046 13.4282C22.4754 13.5619 22.4408 13.701 22.4036 13.8375C22.4408 13.6983 22.4754 13.5701 22.5046 13.4282Z" fill="white"/>
<path d="M20.787 11.9032C21.3776 11.6061 21.9924 11.3623 22.6243 11.1748C21.9924 11.3623 21.3776 11.6061 20.787 11.9032V11.9032Z" fill="white"/>
<path d="M22.1803 14.5635C22.1112 14.7545 22.0367 14.9509 21.9517 15.1446C22.0399 14.9561 22.1163 14.762 22.1803 14.5635V14.5635Z" fill="white"/>
<path d="M18.6732 22.0278L18.5297 21.9541L18.6732 22.0278Z" fill="white"/>
<path d="M19.4708 22.4014L19.3512 22.3496L19.4708 22.4014Z" fill="white"/>
<path d="M19.0588 22.2159L18.9205 22.1504L19.0588 22.2159Z" fill="white"/>
<path d="M17.3225 21.2232C17.2481 21.1741 17.1789 21.125 17.1151 21.0786C17.1789 21.125 17.2481 21.1741 17.3225 21.2232Z" fill="white"/>
<path d="M20.4786 22.7752L20.3616 22.7397L20.4786 22.7752Z" fill="white"/>
<path d="M18.3116 21.8313L18.1707 21.7549L18.3116 21.8313Z" fill="white"/>
<path d="M17.9819 21.6432L17.8436 21.5586L17.9819 21.6432Z" fill="white"/>
<path d="M17.7214 21.482L17.3252 21.2256C17.4448 21.3074 17.5778 21.392 17.7214 21.482Z" fill="white"/>
<path d="M22.0154 23.1194L21.8267 23.0894L22.0154 23.1194Z" fill="white"/>
<path d="M29.2289 20.5571L29.4788 20.7454L29.2289 20.5571Z" fill="white"/>
<path d="M28.8141 20.2681C28.9497 20.3608 29.08 20.4454 29.173 20.5218C29.0667 20.4454 28.963 20.3608 28.8141 20.2681Z" fill="white"/>
<path d="M22.5365 23.179L22.369 23.1626L22.5365 23.179Z" fill="white"/>
<path d="M20.9864 22.9228L20.8242 22.8818L20.9864 22.9228Z" fill="white"/>
<path d="M21.5023 23.0374L21.3188 23.002L21.5023 23.0374Z" fill="white"/>
<path d="M28.8141 20.2681C28.6759 20.1726 28.5216 20.0744 28.3541 19.9707C28.519 20.0744 28.6732 20.1726 28.8141 20.2681Z" fill="white"/>
<path d="M12.0979 19.6299C12.3319 19.7581 12.5605 19.9027 12.7839 20.0391C12.5605 19.8954 12.3319 19.759 12.0979 19.6299Z" fill="#A1227E"/>
<path d="M11.1699 18.3582L11.0981 18.3091L11.1699 18.3582Z" fill="#A1227E"/>
<path d="M11.7469 18.7238L11.6804 18.6802L11.7469 18.7238Z" fill="#A1227E"/>
<path d="M12.3717 19.0594L12.2654 19.0049L12.3717 19.0594Z" fill="#A1227E"/>
<path d="M12.938 19.3187L12.8529 19.2832L12.938 19.3187Z" fill="#A1227E"/>
<path d="M9.97879 17.3651L9.89636 17.2778L9.97879 17.3651Z" fill="#A1227E"/>
<path d="M9.93618 18.0991C9.58884 17.7859 9.27021 17.4407 8.98431 17.0678C8.65657 16.6351 8.37323 16.1689 8.13879 15.6764C8.01648 15.6573 7.8729 15.6492 7.76123 15.6382C7.5884 15.6191 7.41823 15.5973 7.22945 15.5891C6.90507 15.5764 6.57537 15.5764 6.24035 15.5891C5.59307 15.6228 4.94987 15.714 4.31799 15.862C4.3499 15.922 4.38712 15.9902 4.42967 16.0639C4.67626 16.4871 4.94798 16.8944 5.24328 17.2834C5.31241 17.3734 5.38952 17.4689 5.46928 17.5562C5.54905 17.6435 5.62882 17.7472 5.7139 17.8454C6.26057 17.7365 6.81616 17.6817 7.37303 17.6817C8.24233 17.6961 9.10526 17.8366 9.93618 18.0991V18.0991Z" fill="#A1227E"/>
<path d="M10.5796 17.9107L10.476 17.8262L10.5796 17.9107Z" fill="#A1227E"/>
<path d="M9.41501 16.7215C9.30068 16.5715 9.19698 16.4187 9.09595 16.2632C9.19698 16.4187 9.30068 16.5715 9.41501 16.7215Z" fill="#A1227E"/>
<path d="M13.4379 20.4835L13.4006 20.459L13.4379 20.4835Z" fill="#A1227E"/>
<path d="M13.4007 20.4593C13.1986 20.3147 12.9939 20.1865 12.7838 20.0391C12.5738 19.8918 12.3318 19.7663 12.0978 19.6299C10.997 19.027 9.2874 18.2931 7.38896 18.2931C7.18925 18.2889 6.98947 18.2971 6.79072 18.3176V18.3176C6.59714 18.3256 6.40435 18.3475 6.21375 18.3831C6.35201 18.5195 6.49824 18.6559 6.65246 18.7896L6.77211 18.8878C6.89176 18.9888 7.01672 19.0897 7.14701 19.1852L7.31186 19.3052C7.43948 19.3953 7.57774 19.4826 7.71335 19.5781L7.8782 19.6817C8.07495 19.7936 8.27437 19.9 8.48442 19.9928C9.69622 20.5023 11.0075 20.7135 12.3132 20.6093C12.5125 20.604 12.7114 20.5866 12.9088 20.5575V20.5575C13.0976 20.5357 13.2757 20.5111 13.4405 20.4838L13.4007 20.4593Z" fill="#A1227E"/>
<path d="M13.8315 19.6461C13.7783 19.5615 13.7145 19.4688 13.6507 19.3733C13.6294 19.3405 13.6108 19.3105 13.5868 19.2778L13.321 18.8958C12.4682 17.7485 11.3582 16.8294 10.0851 16.2167C9.83789 16.1108 9.58487 16.0197 9.32734 15.9439C9.2396 15.9166 9.1492 15.8947 9.06145 15.8702L8.83545 15.8184C8.91787 15.9711 9.00828 16.1212 9.10134 16.2685C9.1944 16.4158 9.30607 16.5768 9.4204 16.7269C9.56905 16.9193 9.72981 17.1016 9.90166 17.2725L9.98408 17.3598C10.1436 17.5235 10.3111 17.6763 10.4813 17.8209L10.585 17.9055C10.7551 18.048 10.9326 18.181 11.1168 18.3038L11.1885 18.3529C11.3587 18.4675 11.5262 18.5766 11.6964 18.6748L11.7655 18.7185C11.9376 18.8197 12.1151 18.9108 12.2973 18.9913L12.4036 19.0459C12.5685 19.1277 12.7307 19.2014 12.8849 19.2696L12.97 19.3051C13.1295 19.3733 13.2837 19.436 13.4247 19.4879C13.5735 19.5451 13.7092 19.5915 13.8368 19.6325H13.866L13.8315 19.6461Z" fill="#A1227E"/>
<path d="M6.79074 18.3175C6.98749 18.3039 7.18691 18.293 7.38898 18.293C9.28475 18.293 10.9971 19.0187 12.0978 19.6298C12.3318 19.759 12.5605 19.8954 12.7838 20.0391C12.9965 20.1727 13.1986 20.3119 13.4007 20.4592L13.4379 20.4838C13.7729 20.4292 14.0468 20.3692 14.2356 20.3201L14.1239 20.1182C14.0521 19.9927 13.9537 19.8454 13.8394 19.6516H13.8075C13.6799 19.6107 13.5416 19.5643 13.3954 19.507C13.2544 19.4552 13.1002 19.3925 12.9407 19.3243L12.8556 19.2997C12.7014 19.2315 12.5392 19.1578 12.3744 19.076L12.268 19.0214C12.0978 18.9341 11.925 18.8414 11.7362 18.7486L11.6804 18.6804C11.5102 18.5822 11.3427 18.473 11.1725 18.3585L11.1008 18.3093C10.9253 18.1866 10.7524 18.0529 10.569 17.911L10.4653 17.8264C10.2951 17.6818 10.1276 17.5291 9.96808 17.3654L9.88566 17.2781C9.72081 17.1035 9.55596 16.9179 9.4044 16.7324C9.25285 16.5469 9.18638 16.4296 9.08534 16.2741C8.9843 16.1186 8.90454 15.9767 8.81945 15.8239C8.59345 15.7721 8.36478 15.7202 8.12549 15.6875C8.35993 16.1799 8.64328 16.6462 8.97101 17.0789C9.25691 17.4518 9.57554 17.797 9.92288 18.1102C9.09523 17.8621 8.23792 17.7335 7.37569 17.7282C6.81881 17.7282 6.26322 17.783 5.71655 17.8919C5.86279 18.0583 6.01966 18.2275 6.19249 18.3967C6.38127 18.3694 6.57537 18.3448 6.76946 18.3312L6.79074 18.3175Z" fill="#A1227E"/>
<path d="M5.7246 17.8756C5.63951 17.7774 5.55709 17.6819 5.47998 17.5864C5.56506 17.6819 5.63951 17.7774 5.7246 17.8756Z" fill="#A1227E"/>
<path d="M7.24011 15.5894C7.41807 15.5965 7.59555 15.6129 7.77188 15.6385C7.58842 15.6194 7.42623 15.5975 7.24011 15.5894Z" fill="#A1227E"/>
<path d="M8.48976 19.9873C8.27971 19.8945 8.0803 19.7881 7.88354 19.6763C8.0782 19.7945 8.28078 19.8984 8.48976 19.9873V19.9873Z" fill="#A1227E"/>
<path d="M12.9088 20.5571C12.7227 20.579 12.5233 20.5981 12.3132 20.609C12.5233 20.5981 12.7227 20.579 12.9088 20.5571Z" fill="#A1227E"/>
<path d="M6.78279 18.3203C6.58921 18.3283 6.39642 18.3502 6.20581 18.3858V18.3858C6.39459 18.3585 6.58869 18.334 6.78279 18.3203Z" fill="#A1227E"/>
<path d="M7.70801 19.5726C7.56975 19.4881 7.44212 19.4007 7.30652 19.2998C7.43366 19.4007 7.56785 19.4919 7.70801 19.5726V19.5726Z" fill="#A1227E"/>
<path d="M6.79077 18.3175C6.98753 18.3039 7.18694 18.293 7.38902 18.293C7.18694 18.293 6.98753 18.3039 6.79077 18.3175Z" fill="#A1227E"/>
<path d="M12.7838 20.0391C12.9939 20.1727 13.1986 20.3119 13.4007 20.4592C13.1986 20.3146 13.0098 20.1727 12.7838 20.0391Z" fill="#A1227E"/>
<path d="M7.14175 19.1904C7.01161 19.0984 6.88645 18.9991 6.76685 18.8931C6.89447 18.994 7.01146 19.095 7.14175 19.1904Z" fill="#A1227E"/>
<path d="M12.9115 20.5576C13.1003 20.5357 13.2784 20.5112 13.4433 20.4839C13.2758 20.5112 13.1003 20.5357 12.9115 20.5576Z" fill="#A1227E"/>
<path d="M6.64721 18.7947C6.493 18.661 6.34676 18.5219 6.2085 18.3882C6.34676 18.5246 6.493 18.661 6.64721 18.7947Z" fill="#A1227E"/>
<path d="M13.8075 19.6461C13.6799 19.6051 13.5416 19.5588 13.3954 19.5015C13.5291 19.5601 13.6668 19.6084 13.8075 19.6461V19.6461Z" fill="#A1227E"/>
<path d="M9.89629 17.2781C9.73144 17.1035 9.56659 16.9179 9.41504 16.7324C9.56573 16.9231 9.72639 17.1052 9.89629 17.2781V17.2781Z" fill="#A1227E"/>
<path d="M13.3927 19.5016C13.2517 19.4498 13.0975 19.3871 12.938 19.3188C13.0975 19.3871 13.2517 19.4498 13.3927 19.5016Z" fill="#A1227E"/>
<path d="M9.05872 15.8647C9.14646 15.8893 9.23686 15.9111 9.3246 15.9384C9.23686 15.9111 9.14646 15.8893 9.05872 15.8647Z" fill="#A1227E"/>
<path d="M10.476 17.8263C10.3058 17.6817 10.1383 17.5289 9.97876 17.3652C10.1383 17.5289 10.3058 17.6817 10.476 17.8263Z" fill="#A1227E"/>
<path d="M13.6506 19.3789C13.7144 19.4689 13.7783 19.5617 13.8314 19.6517C13.7756 19.5726 13.7171 19.4717 13.6506 19.3789Z" fill="#A1227E"/>
<path d="M13.3103 18.9014C13.4058 19.0235 13.4946 19.151 13.5762 19.2833C13.4949 19.1508 13.4062 19.0232 13.3103 18.9014V18.9014Z" fill="#A1227E"/>
<path d="M11.0981 18.3095C10.9226 18.1867 10.7497 18.053 10.5663 17.9111C10.7497 18.053 10.9226 18.1867 11.0981 18.3095Z" fill="#A1227E"/>
<path d="M11.6805 18.6803C11.5103 18.5821 11.3428 18.473 11.1726 18.3584C11.3357 18.4757 11.5052 18.5832 11.6805 18.6803V18.6803Z" fill="#A1227E"/>
<path d="M12.853 19.2833C12.6987 19.2151 12.5366 19.1414 12.3717 19.0596C12.5366 19.1414 12.6987 19.2151 12.853 19.2833Z" fill="#A1227E"/>
<path d="M8.83276 15.813C8.91519 15.9658 9.00559 16.1158 9.09865 16.2632C9.00559 16.1158 8.91519 15.9658 8.83276 15.813Z" fill="#A1227E"/>
<path d="M12.2654 19.0048C12.0952 18.9175 11.9224 18.8247 11.7336 18.7319C11.9224 18.8247 12.0952 18.9175 12.2654 19.0048Z" fill="#A1227E"/>
<path d="M13.2694 15.3711H13.2651L13.2694 15.3754V15.3711Z" fill="#A1227E"/>
<path d="M13.5576 13.6631C13.5527 13.5899 13.5438 13.517 13.531 13.4448C13.5416 13.5185 13.5416 13.5894 13.5576 13.6631Z" fill="#A1227E"/>
<path d="M11.9808 13.5537L12.0526 13.6301L11.9808 13.5537Z" fill="#A1227E"/>
<path d="M13.4353 11.6033V10.9458C13.4382 11.1613 13.4353 11.3878 13.4353 11.6033Z" fill="#A1227E"/>
<path d="M12.9327 14.7651L12.962 14.817L12.9327 14.7651Z" fill="#A1227E"/>
<path d="M11.3746 13L11.4677 13.0791L11.3746 13Z" fill="#A1227E"/>
<path d="M10.7631 12.5444L10.8375 12.5963L10.7631 12.5444Z" fill="#A1227E"/>
<path d="M13.6719 14.5034L13.64 14.3179L13.6719 14.5034Z" fill="#A1227E"/>
<path d="M13.4778 12.752C13.4808 12.677 13.4745 12.6018 13.4592 12.5283C13.4645 12.6156 13.4725 12.6893 13.4778 12.752Z" fill="#A1227E"/>
<path d="M12.9806 13.8429L13.0364 13.9193C12.9412 13.1474 12.8924 12.3702 12.8902 11.5921C12.8906 10.9459 12.9243 10.3003 12.9912 9.65777V9.65777C12.5149 9.09257 11.9869 8.57548 11.4145 8.11358L11.3852 8.08903L11.1672 7.91715L11.122 7.88168L10.9465 7.75072L10.904 7.71799L10.7285 7.59521C10.7046 7.66888 10.678 7.75072 10.6514 7.84621C10.5028 8.3473 10.3856 8.85761 10.3004 9.37403C10.2765 9.52136 10.2552 9.67687 10.234 9.83783V9.92241C10.218 10.0616 10.202 10.1952 10.1914 10.3562V10.4408C10.1914 10.5936 10.1701 10.7491 10.1675 10.91V11.5184C11.2542 12.0814 12.2129 12.8735 12.9806 13.8429V13.8429Z" fill="#A1227E"/>
<path d="M14.653 17.7857C14.6796 17.6683 14.7088 17.5456 14.7354 17.4146C14.762 17.2837 14.7939 17.1118 14.8205 16.9508C15.0916 15.4499 15.0068 13.904 14.5732 12.4437C14.5121 12.2582 14.4429 12.0782 14.3685 11.8981L14.302 11.7508C14.2435 11.6225 14.185 11.497 14.1239 11.3743C14.0999 11.3252 14.0734 11.2761 14.0468 11.2297C13.9803 11.1015 13.9112 10.9787 13.8367 10.8559C13.8154 10.8232 13.7968 10.7877 13.7756 10.7522C13.6825 10.6022 13.5841 10.4549 13.4857 10.313C13.4698 10.5203 13.4592 10.7331 13.4512 10.9459C13.4432 11.1587 13.4512 11.3825 13.4512 11.6034C13.4512 11.9199 13.4512 12.2309 13.4751 12.5392C13.4751 12.6156 13.4751 12.6893 13.4937 12.763C13.5097 12.9949 13.5256 13.224 13.5469 13.445C13.5518 13.5182 13.5607 13.5911 13.5735 13.6633C13.6001 13.8843 13.6267 14.1053 13.6559 14.3181L13.6878 14.5036C13.7224 14.7218 13.7569 14.9374 13.7968 15.1447V15.1611C14.2039 16.002 14.4938 16.8975 14.6583 17.8211L14.653 17.7857Z" fill="#A1227E"/>
<path d="M13.2757 15.3737C13.1841 15.1865 13.0829 15.0043 12.9726 14.828L12.9434 14.7762C12.6915 14.3658 12.3964 13.9852 12.0633 13.6412L11.9915 13.5703C11.824 13.4011 11.6538 13.2429 11.4783 13.0956L11.3853 13.0246C11.2071 12.8828 11.029 12.7518 10.8535 12.6209L10.779 12.569C10.5929 12.4435 10.4041 12.3235 10.218 12.2144C10.218 12.3508 10.2446 12.4872 10.2659 12.6236C10.27 12.6715 10.278 12.7189 10.2898 12.7655C10.3137 12.9046 10.3403 13.0383 10.3722 13.1883C10.3783 13.2451 10.3908 13.301 10.4095 13.3548C10.4547 13.5376 10.5052 13.7203 10.5637 13.9004C10.6493 14.1599 10.7496 14.4141 10.8641 14.6616C10.8767 14.6933 10.8909 14.7242 10.9067 14.7544C11.0183 14.9917 11.1433 15.2209 11.2736 15.4391L11.3454 15.5565C11.4748 15.7656 11.6104 15.9675 11.7522 16.1621L11.8319 16.2685C11.9755 16.4595 12.1218 16.6423 12.2707 16.8142C12.2919 16.8415 12.3132 16.8633 12.3345 16.8878C12.6308 17.2228 12.9451 17.5407 13.2757 17.84L13.3103 17.87C13.4592 18.0037 13.6028 18.1237 13.7357 18.2329L13.7596 18.2492C13.8952 18.3611 14.0255 18.4566 14.1319 18.5384C13.771 17.5065 13.4849 16.4488 13.2757 15.3737V15.3737Z" fill="#A1227E"/>
<path d="M10.1835 10.3537C10.1891 10.2084 10.2033 10.0635 10.226 9.91992C10.2101 10.0591 10.1941 10.2009 10.1835 10.3537Z" fill="#A1227E"/>
<path d="M10.234 9.83538C10.2553 9.67442 10.2766 9.51891 10.3005 9.37158C10.2766 9.51618 10.2553 9.67442 10.234 9.83538Z" fill="#A1227E"/>
<path d="M11.1672 7.91455L11.3853 8.08643C11.3108 8.02368 11.2364 7.96639 11.1672 7.91455Z" fill="#A1227E"/>
<path d="M10.1546 11.4914V11.0112C10.1488 11.1695 10.1488 11.3277 10.1546 11.4914Z" fill="#A1227E"/>
<path d="M12.9913 9.66887C12.5144 9.10088 11.9865 8.58022 11.4146 8.11377C11.9865 8.58022 12.5144 9.10088 12.9913 9.66887V9.66887Z" fill="#A1227E"/>
<path d="M10.7285 7.59277L10.904 7.71555L10.7285 7.59277Z" fill="#A1227E"/>
<path d="M10.7631 12.5445L10.8375 12.5964C11.0183 12.7219 11.1965 12.8692 11.3693 13.0001L11.4623 13.0793C11.6378 13.2266 11.808 13.3848 11.9755 13.554L12.0473 13.6304C12.2232 13.811 12.3884 14.0023 12.5418 14.2033C12.6828 14.3861 12.8077 14.5743 12.9274 14.7653L12.9566 14.8171C13.0683 14.9999 13.1667 15.1855 13.2597 15.3628C13.6778 16.2236 13.9698 17.1429 14.1265 18.091C14.1558 18.2629 14.177 18.4239 14.1983 18.5794L14.3844 18.7131C14.4084 18.6394 14.4349 18.5548 14.4615 18.4594C14.4881 18.3639 14.528 18.2356 14.5626 18.102C14.5254 17.9928 14.4855 17.8864 14.4482 17.7773C14.1709 16.9149 13.9462 16.0356 13.7756 15.1445V15.1445C13.7357 14.9372 13.7011 14.7217 13.6665 14.5034L13.6346 14.3179C13.6054 14.1051 13.5788 13.8841 13.5522 13.6631C13.5473 13.5899 13.5384 13.517 13.5256 13.4448C13.5043 13.2239 13.4884 12.9947 13.4724 12.7628C13.4754 12.6877 13.4691 12.6125 13.4538 12.5391C13.4379 12.2308 13.4299 11.9197 13.4299 11.6033V10.9458C13.4299 10.7302 13.4485 10.5202 13.4645 10.3128C13.3049 10.0836 13.1401 9.87084 12.9726 9.66895C12.9057 10.3114 12.872 10.9571 12.8715 11.6033C12.8711 12.3812 12.9173 13.1584 13.0098 13.9305L12.9805 13.8432C12.2105 12.8671 11.2471 12.0701 10.1542 11.5051C10.1585 11.7304 10.1745 11.9553 10.202 12.1789V12.1789C10.3882 12.299 10.5769 12.419 10.7631 12.5445Z" fill="#A1227E"/>
<path d="M10.1542 10.9077C10.1542 10.7468 10.1675 10.5913 10.1781 10.4385C10.1675 10.5913 10.1568 10.7468 10.1542 10.9077Z" fill="#A1227E"/>
<path d="M10.9465 7.74805L11.122 7.879L10.9465 7.74805Z" fill="#A1227E"/>
<path d="M13.5416 13.4448C13.5203 13.2238 13.5044 12.9946 13.4884 12.7627C13.4925 12.991 13.5102 13.2187 13.5416 13.4448V13.4448Z" fill="#A1227E"/>
<path d="M13.64 14.3179C13.6108 14.1051 13.5842 13.8841 13.5576 13.6631C13.5842 13.8841 13.6108 14.116 13.64 14.3179Z" fill="#A1227E"/>
<path d="M13.7809 15.1446C13.741 14.9372 13.7064 14.7217 13.6719 14.5034C13.7064 14.7217 13.741 14.9345 13.7809 15.1446Z" fill="#A1227E"/>
<path d="M14.7355 17.4146C14.7089 17.5455 14.6797 17.6683 14.6531 17.7856C14.6797 17.6628 14.7089 17.5455 14.7355 17.4146Z" fill="#A1227E"/>
<path d="M13.7836 15.1606C13.9542 16.0517 14.1789 16.931 14.4563 17.7934C14.4935 17.9025 14.5334 18.0089 14.5706 18.1181C14.5945 18.0253 14.6185 17.9298 14.645 17.8207C14.4806 16.897 14.1906 16.0016 13.7836 15.1606V15.1606Z" fill="#A1227E"/>
<path d="M14.3685 11.9004C14.443 12.0777 14.5121 12.2578 14.5733 12.446C14.5121 12.2578 14.443 12.0777 14.3685 11.9004Z" fill="#A1227E"/>
<path d="M13.4832 10.313C13.4672 10.5203 13.4566 10.7331 13.4486 10.9459C13.4566 10.7331 13.4672 10.5203 13.4832 10.313Z" fill="#A1227E"/>
<path d="M13.4592 12.5388C13.4433 12.2305 13.4353 11.9195 13.4353 11.603C13.4353 11.9331 13.4433 12.2305 13.4592 12.5388Z" fill="#A1227E"/>
<path d="M13.4857 10.3154C13.5841 10.4573 13.6825 10.6046 13.7755 10.7547C13.6825 10.6046 13.5841 10.4573 13.4857 10.3154Z" fill="#A1227E"/>
<path d="M13.8368 10.8584C13.9112 10.9812 13.9804 11.1039 14.0468 11.2322C13.9804 11.1149 13.9112 10.9812 13.8368 10.8584Z" fill="#A1227E"/>
<path d="M14.1239 11.3877C14.1851 11.5105 14.2435 11.636 14.302 11.7642C14.249 11.6356 14.1896 11.51 14.1239 11.3877V11.3877Z" fill="#A1227E"/>
<path d="M12.5472 14.2031C12.685 14.3836 12.8137 14.5712 12.9328 14.7651C12.8131 14.5742 12.6882 14.3886 12.5472 14.2031Z" fill="#A1227E"/>
<path d="M10.8641 14.6615C10.7439 14.4052 10.6383 14.1419 10.5477 13.873C10.6383 14.1419 10.7439 14.4052 10.8641 14.6615V14.6615Z" fill="#A1227E"/>
<path d="M11.2735 15.4446C11.1362 15.2251 11.0136 14.9963 10.9066 14.7598C11.0183 14.9971 11.1486 15.2263 11.2735 15.4446Z" fill="#A1227E"/>
<path d="M10.3935 13.33C10.3875 13.2732 10.375 13.2174 10.3563 13.1636C10.3696 13.2181 10.3803 13.2754 10.3935 13.33Z" fill="#A1227E"/>
<path d="M12.2706 16.8171C12.1217 16.648 11.9755 16.4652 11.8319 16.2715C11.9755 16.4652 12.1217 16.648 12.2706 16.8171Z" fill="#A1227E"/>
<path d="M13.2758 15.3735C13.4855 16.4491 13.7734 17.5069 14.1372 18.5383C14.0256 18.4565 13.9006 18.361 13.765 18.2491C13.9325 18.3855 14.0841 18.5028 14.2143 18.5956C14.1931 18.4401 14.1718 18.2791 14.1425 18.1072C13.9879 17.1568 13.6958 16.2354 13.2758 15.3735V15.3735Z" fill="#A1227E"/>
<path d="M11.7521 16.1677C11.6103 15.9731 11.4747 15.7712 11.3453 15.562C11.4747 15.773 11.6103 15.9749 11.7521 16.1677Z" fill="#A1227E"/>
<path d="M10.202 12.1899C10.3881 12.2991 10.5769 12.4191 10.763 12.5446C10.5769 12.4191 10.3881 12.2991 10.202 12.1899Z" fill="#A1227E"/>
<path d="M10.2738 12.7517C10.2684 12.704 10.2604 12.6567 10.2499 12.6099C10.2552 12.6453 10.2658 12.6944 10.2738 12.7517Z" fill="#A1227E"/>
<path d="M12.0526 13.6304C12.2286 13.811 12.3937 14.0023 12.5472 14.2033C12.3937 14.0023 12.2286 13.811 12.0526 13.6304V13.6304Z" fill="#A1227E"/>
<path d="M13.733 18.233C13.6001 18.1238 13.4671 18.0038 13.3076 17.8701C13.4565 18.0038 13.6001 18.1238 13.733 18.233Z" fill="#A1227E"/>
<path d="M12.962 14.8169C13.071 14.9997 13.1747 15.1852 13.2651 15.3625C13.1721 15.1852 13.0737 14.9997 12.962 14.8169Z" fill="#A1227E"/>
<path d="M12.3345 16.8906C12.6301 17.2254 12.9444 17.5424 13.2757 17.8401C12.9444 17.5424 12.6301 17.2254 12.3345 16.8906V16.8906Z" fill="#A1227E"/>
<path d="M11.4677 13.0791C11.6431 13.2264 11.8133 13.3847 11.9808 13.5538C11.8133 13.3847 11.6431 13.2264 11.4677 13.0791Z" fill="#A1227E"/>
<path d="M10.8375 12.5962C11.0183 12.7217 11.1965 12.869 11.3693 13C11.1965 12.8554 11.0183 12.7217 10.8375 12.5962Z" fill="#A1227E"/>
<path d="M16.9635 13.2974C16.9604 13.365 16.9533 13.4325 16.9423 13.4993C16.9502 13.4256 16.9556 13.3601 16.9635 13.2974Z" fill="#A1227E"/>
<path d="M17.5299 14.7735C17.5354 14.7599 17.5425 14.7471 17.5512 14.7354C17.5425 14.7471 17.5354 14.7599 17.5299 14.7735Z" fill="#A1227E"/>
<path d="M17.0251 12.4409V12.6701C17.0193 12.5938 17.0193 12.5172 17.0251 12.4409V12.4409Z" fill="#A1227E"/>
<path d="M18.3887 13.6468L18.4684 13.5649L18.3887 13.6468Z" fill="#A1227E"/>
<path d="M18.9711 13.0955L19.0482 13.0327L18.9711 13.0955Z" fill="#A1227E"/>
<path d="M17.5299 9.9747C17.5777 10.504 17.6043 11.0469 17.6043 11.6117C17.6026 12.3769 17.5555 13.1413 17.4634 13.9007L17.49 13.8625C18.2501 12.9022 19.1962 12.1144 20.2685 11.5489V11.5489V10.9842C20.2685 10.815 20.2685 10.6513 20.2685 10.4931V10.4494C20.2685 10.2885 20.2472 10.1357 20.2339 9.98835V9.95015C20.218 9.79191 20.1994 9.64186 20.1807 9.49999C20.1113 8.99924 20.011 8.50352 19.8803 8.01582C19.859 7.9367 19.8377 7.86577 19.8191 7.80029L19.6437 7.93125L19.6038 7.96399C19.5453 8.00764 19.4841 8.05402 19.4176 8.10858L19.3831 8.13587L19.1438 8.33503C18.5564 8.82784 18.0159 9.37687 17.5299 9.9747V9.9747Z" fill="#A1227E"/>
<path d="M16.9423 13.494C16.9389 13.426 16.9461 13.3578 16.9636 13.2921C16.9813 13.0884 16.9973 12.8811 17.0115 12.6701V12.4409C17.0115 12.1681 17.0327 11.8953 17.0327 11.6034C17.0327 11.3114 17.0327 10.9704 17.0088 10.6621C16.9128 10.8 16.8241 10.9429 16.7429 11.0904L16.7323 11.115C16.6552 11.2487 16.5807 11.3878 16.5089 11.5215L16.4691 11.6006C16.4052 11.7261 16.3441 11.8571 16.2856 11.988L16.2377 12.0972C16.1686 12.2609 16.1021 12.43 16.0436 12.6046C15.5971 14.0289 15.4824 15.5409 15.7086 17.0189C15.7272 17.1608 15.7512 17.2917 15.7724 17.4282L15.8043 17.6028L15.8283 17.7255C15.9983 16.8082 16.2937 15.92 16.7057 15.0873C16.8041 14.5799 16.8838 14.0451 16.9423 13.494Z" fill="#A1227E"/>
<path d="M16.7322 18.2083L16.7641 18.181C16.8891 18.0718 17.03 17.9545 17.1603 17.8263L17.2161 17.7745C17.3544 17.6435 17.5006 17.5016 17.6469 17.3461C17.6606 17.3348 17.673 17.322 17.6841 17.3079C17.8277 17.1579 17.9712 16.9969 18.1175 16.825L18.16 16.7787C18.3036 16.6068 18.4445 16.424 18.5854 16.233C18.6094 16.2003 18.636 16.1675 18.6599 16.1321C18.7955 15.9438 18.9258 15.7447 19.0507 15.54L19.1225 15.42C19.2475 15.2072 19.3671 14.9889 19.4762 14.7598L19.5214 14.6615C19.6373 14.4136 19.7403 14.1595 19.8298 13.9004C19.914 13.6489 19.985 13.393 20.0425 13.1337C20.0585 13.071 20.0691 13.0055 20.0824 12.9427C20.1249 12.7327 20.1622 12.5253 20.1887 12.318V12.2334C19.7871 12.476 19.404 12.7496 19.0428 13.0519L18.9657 13.1146C18.7928 13.2619 18.6253 13.4175 18.4631 13.5839L18.3834 13.6657C18.2142 13.8385 18.0544 14.0206 17.9048 14.2114C17.774 14.3865 17.6524 14.5686 17.5405 14.757C17.5319 14.7688 17.5247 14.7816 17.5192 14.7952C17.4129 14.9644 17.3145 15.139 17.2268 15.3136C17.0173 16.3895 16.7311 17.4482 16.3706 18.4811L16.7322 18.2083Z" fill="#A1227E"/>
<path d="M19.6224 7.91172L19.7979 7.78076L19.6224 7.91172Z" fill="#A1227E"/>
<path d="M20.1595 9.47803C20.1782 9.6199 20.1968 9.76995 20.2127 9.92819C20.1888 9.77541 20.1888 9.62262 20.1595 9.47803Z" fill="#A1227E"/>
<path d="M17.0221 10.6565C17.0381 10.9657 17.046 11.2794 17.046 11.5977C17.046 11.8705 17.046 12.1434 17.0248 12.4353V12.6645C17.0062 12.88 16.9875 13.0901 16.9636 13.2974C16.9605 13.3651 16.9534 13.4325 16.9423 13.4993C16.7688 15.0733 16.4246 16.6226 15.916 18.1182C15.9479 18.2655 15.9825 18.391 16.0117 18.5056C16.041 18.6202 16.0543 18.6584 16.0729 18.7239L16.2537 18.5875C16.2723 18.4374 16.2962 18.2792 16.3228 18.1128C16.4823 17.1329 16.7882 16.1842 17.2295 15.2999V15.2999C17.3172 15.1253 17.4156 14.9507 17.522 14.7816C17.5275 14.768 17.5346 14.7551 17.5432 14.7434C17.6551 14.555 17.7767 14.3729 17.9075 14.1977C18.0553 14.0053 18.2151 13.8231 18.3861 13.6521L18.4659 13.5702C18.6281 13.4038 18.7956 13.2483 18.9684 13.101L19.0455 13.0382C19.4067 12.736 19.7898 12.4624 20.1915 12.2198C20.2207 11.9879 20.242 11.756 20.2526 11.5322C19.1808 12.0961 18.2354 12.8831 17.4768 13.8431L17.4502 13.8813C17.5423 13.1219 17.5894 12.3575 17.5911 11.5923C17.5911 11.0466 17.5645 10.501 17.5167 9.95531C17.9953 9.35776 18.5296 8.80951 19.112 8.31836C18.3139 8.99418 17.6098 9.77903 17.0194 10.651L17.0221 10.6565Z" fill="#A1227E"/>
<path d="M19.3911 8.08942C19.4576 8.03486 19.5187 7.98848 19.5772 7.94482L19.3911 8.08942Z" fill="#A1227E"/>
<path d="M19.1252 8.31586L19.3645 8.1167L19.1252 8.31586Z" fill="#A1227E"/>
<path d="M20.2659 11.0386V11.5297C20.263 11.3632 20.2659 11.1995 20.2659 11.0386Z" fill="#A1227E"/>
<path d="M20.2153 9.96924C20.2286 10.1166 20.2419 10.2693 20.2499 10.4303C20.2419 10.2693 20.2286 10.1166 20.2153 9.96924Z" fill="#A1227E"/>
<path d="M20.2526 10.4736C20.2526 10.6319 20.2672 10.7956 20.2672 10.9647C20.2672 10.7956 20.2613 10.6319 20.2526 10.4736Z" fill="#A1227E"/>
<path d="M16.0463 12.6046C16.1048 12.43 16.1712 12.2609 16.2404 12.0972C16.1712 12.2636 16.1048 12.43 16.0463 12.6046Z" fill="#A1227E"/>
<path d="M16.2882 11.988C16.3467 11.857 16.4079 11.7152 16.4717 11.6006C16.4079 11.7261 16.3467 11.857 16.2882 11.988Z" fill="#A1227E"/>
<path d="M15.8069 17.6028L15.775 17.4282L15.8069 17.6028Z" fill="#A1227E"/>
<path d="M17.0221 10.6567C16.9317 10.7959 16.8413 10.9296 16.7562 11.0851C16.8386 10.9405 16.9291 10.7959 17.0221 10.6567Z" fill="#A1227E"/>
<path d="M17.0221 10.6621C17.038 10.9695 17.046 11.2832 17.046 11.6034C17.046 11.2778 17.038 10.964 17.0221 10.6621Z" fill="#A1227E"/>
<path d="M16.5116 11.5213C16.5834 11.3848 16.6578 11.2484 16.7349 11.1147C16.6578 11.2484 16.5834 11.3876 16.5116 11.5213Z" fill="#A1227E"/>
<path d="M17.0461 11.603C17.0461 11.8759 17.0461 12.1623 17.0248 12.4406C17.0381 12.1623 17.0461 11.884 17.0461 11.603Z" fill="#A1227E"/>
<path d="M17.0115 12.6699C17.0115 12.88 16.9876 13.0901 16.9636 13.2974C16.9982 13.0901 16.9982 12.88 17.0115 12.6699Z" fill="#A1227E"/>
<path d="M16.7084 15.0874C16.2964 15.9201 16.001 16.8083 15.8309 17.7257C15.8602 17.8648 15.8868 17.9985 15.916 18.1131C16.4246 16.6174 16.7688 15.0682 16.9423 13.4941C16.8838 14.0452 16.8041 14.58 16.7084 15.0874Z" fill="#A1227E"/>
<path d="M17.155 17.8208C17.0167 17.949 16.8891 18.0663 16.7588 18.1755C16.8838 18.0663 17.0167 17.949 17.155 17.8208Z" fill="#A1227E"/>
<path d="M17.6416 17.3408C17.4953 17.4963 17.3491 17.6382 17.2108 17.7692C17.3517 17.6355 17.4953 17.4963 17.6416 17.3408Z" fill="#A1227E"/>
<path d="M16.3707 18.4812C16.7349 17.439 17.022 16.3702 17.2295 15.2837C16.7881 16.1679 16.4823 17.1167 16.3228 18.0965C16.2962 18.2629 16.2723 18.4212 16.2537 18.5712C16.3893 18.4812 16.5488 18.353 16.7323 18.2084L16.3707 18.4812Z" fill="#A1227E"/>
<path d="M18.1122 16.8198C17.966 16.9917 17.8224 17.1527 17.6788 17.3027C17.8224 17.1527 17.966 16.9917 18.1122 16.8198Z" fill="#A1227E"/>
<path d="M20.1888 12.228C19.7872 12.4706 19.4041 12.7443 19.0428 13.0465C19.4041 12.7443 19.7872 12.4706 20.1888 12.228V12.228Z" fill="#A1227E"/>
<path d="M17.9102 14.2034C18.0598 14.0126 18.2196 13.8304 18.3888 13.6577C18.2178 13.8287 18.0579 14.011 17.9102 14.2034V14.2034Z" fill="#A1227E"/>
<path d="M17.5459 14.7351C17.6578 14.5467 17.7794 14.3646 17.9102 14.1895C17.7794 14.3646 17.6578 14.5467 17.5459 14.7351V14.7351Z" fill="#A1227E"/>
<path d="M18.4685 13.5703C18.6307 13.4039 18.7982 13.2484 18.971 13.1011C18.794 13.2464 18.6262 13.4031 18.4685 13.5703Z" fill="#A1227E"/>
<path d="M20.1888 12.3125C20.1622 12.5198 20.1249 12.7272 20.0824 12.9373C20.1196 12.7272 20.1568 12.5198 20.1888 12.3125Z" fill="#A1227E"/>
<path d="M18.5935 16.2275C18.4526 16.4185 18.3117 16.6013 18.1681 16.7732C18.2984 16.6013 18.4393 16.4185 18.5935 16.2275Z" fill="#A1227E"/>
<path d="M17.2322 15.2918C17.3199 15.1172 17.4183 14.9426 17.5247 14.7734C17.4174 14.9402 17.3197 15.1133 17.2322 15.2918V15.2918Z" fill="#A1227E"/>
<path d="M19.0455 15.5347C18.9205 15.7393 18.7796 15.9384 18.6547 16.1267C18.7953 15.9368 18.9258 15.7391 19.0455 15.5347Z" fill="#A1227E"/>
<path d="M20.0372 13.1284C19.9797 13.3877 19.9087 13.6436 19.8245 13.8951C19.9087 13.6436 19.9797 13.3877 20.0372 13.1284Z" fill="#A1227E"/>
<path d="M19.4709 14.7544C19.3619 14.9836 19.2423 15.2018 19.1173 15.4146C19.2423 15.2073 19.3619 14.9836 19.4709 14.7544Z" fill="#A1227E"/>
<path d="M19.8245 13.895C19.7367 14.1566 19.6337 14.4126 19.5161 14.6617C19.6337 14.4126 19.7367 14.1566 19.8245 13.895Z" fill="#A1227E"/>
<path d="M17.0353 19.5122L16.9689 19.5368L17.0353 19.5122Z" fill="#A1227E"/>
<path d="M18.1548 19.0269L18.0591 19.076L18.1548 19.0269Z" fill="#A1227E"/>
<path d="M17.5752 19.2998L17.4741 19.3407L17.5752 19.2998Z" fill="#A1227E"/>
<path d="M17.6682 20.0418C17.8942 19.8973 18.1255 19.769 18.3595 19.6299C18.1255 19.7581 17.8942 19.8973 17.6682 20.0418Z" fill="#A1227E"/>
<path d="M18.7265 18.7158L18.6919 18.7349L18.7265 18.7158Z" fill="#A1227E"/>
<path d="M20.5211 18.0992C21.3497 17.8511 22.2079 17.7226 23.071 17.7172C23.6169 17.7194 24.1616 17.7724 24.6982 17.8754C24.8737 17.6763 25.0332 17.4826 25.1715 17.3052C25.4668 16.9162 25.7385 16.5089 25.9851 16.0857C26.0276 16.0121 26.0649 15.9438 26.0968 15.8838C25.4649 15.7359 24.8217 15.6446 24.1744 15.611C23.8485 15.5919 23.5218 15.5919 23.1959 15.611C23.0258 15.611 22.8636 15.6383 22.6987 15.6547C22.5722 15.6586 22.446 15.6714 22.3212 15.6929C21.8889 16.6198 21.2763 17.4461 20.5211 18.121V18.0992Z" fill="#A1227E"/>
<path d="M19.3406 18.3228L19.2609 18.3746L19.3406 18.3228Z" fill="#A1227E"/>
<path d="M19.9681 17.8374L19.8698 17.9356L19.9681 17.8374Z" fill="#A1227E"/>
<path d="M20.5504 17.2891C20.527 17.3168 20.5021 17.3432 20.476 17.3682C20.5021 17.3432 20.527 17.3168 20.5504 17.2891V17.2891Z" fill="#A1227E"/>
<path d="M21.364 16.2578C21.2629 16.4133 21.1566 16.5688 21.0422 16.7216C21.1566 16.5716 21.2656 16.4161 21.364 16.2578Z" fill="#A1227E"/>
<path d="M16.6073 19.6597C16.719 19.6242 16.8413 19.5833 16.9689 19.5369L17.0354 19.5124C17.1736 19.4605 17.3199 19.4032 17.4741 19.3378L17.5751 19.2968C17.7293 19.2286 17.8915 19.155 18.059 19.0731L18.1548 19.024C18.3302 18.9367 18.511 18.8412 18.6865 18.7348L18.7211 18.7157C18.8992 18.6121 19.0774 18.4975 19.2529 18.3747L19.3326 18.3229C19.5108 18.1974 19.6863 18.05 19.8644 17.9218L19.9628 17.8372C20.1356 17.6926 20.3058 17.5344 20.4706 17.368C20.4968 17.343 20.5216 17.3165 20.5451 17.2889C20.7195 17.1095 20.8837 16.92 21.037 16.7214C21.1513 16.5686 21.2577 16.4131 21.3587 16.2576C21.4597 16.1021 21.5422 15.9575 21.6246 15.8047C21.5368 15.8238 21.4464 15.8402 21.3587 15.8647L21.0928 15.9356C20.831 16.0118 20.5736 16.1029 20.3217 16.2085C19.051 16.8228 17.9444 17.7439 17.0965 18.8931C16.9928 19.0295 16.8998 19.1659 16.812 19.2859C16.7928 19.3112 16.775 19.3376 16.7588 19.3651L16.5701 19.6379V19.657L16.6073 19.6597Z" fill="#A1227E"/>
<path d="M18.1122 20.6093C19.4192 20.7131 20.7317 20.5 21.9436 19.9872C22.1508 19.8945 22.3532 19.7907 22.5498 19.6762L22.7253 19.5671C22.8582 19.4852 22.9912 19.4006 23.1161 19.3106C23.1746 19.2697 23.2331 19.2288 23.289 19.1851C23.4166 19.0896 23.5389 18.9941 23.6586 18.8932L23.7809 18.7895C23.9377 18.6558 24.0866 18.5167 24.2249 18.3803C23.8437 18.3225 23.4589 18.2933 23.0736 18.293C21.1725 18.293 19.4602 19.0187 18.3594 19.6298C18.1254 19.758 17.8941 19.9026 17.6681 20.0418C17.4421 20.1809 17.2267 20.3337 17.014 20.4892C17.3331 20.5383 17.7027 20.5847 18.1122 20.6093Z" fill="#A1227E"/>
<path d="M21.0423 16.7213C20.889 16.9199 20.7248 17.1094 20.5504 17.2887C20.527 17.3164 20.5021 17.3429 20.476 17.3679C20.3111 17.5343 20.1409 17.6925 19.9681 17.8371L19.8697 17.9353C19.6942 18.0772 19.5188 18.2082 19.338 18.3364L19.2582 18.3882C19.08 18.511 18.9019 18.6256 18.7264 18.7293L18.6919 18.7484C18.5084 18.8548 18.3302 18.9502 18.1601 19.0376L18.0644 19.0867C17.8969 19.1685 17.7347 19.2422 17.5804 19.3104L17.4794 19.3513C17.3252 19.4168 17.179 19.4741 17.0407 19.5259L16.9742 19.5505L16.6126 19.6732H16.5834C16.4874 19.8186 16.3987 19.9689 16.3175 20.1234L16.2058 20.3226C16.3972 20.3717 16.6817 20.4344 17.0301 20.4917C17.2428 20.3362 17.4608 20.1861 17.6841 20.0443C17.9075 19.9024 18.1415 19.7715 18.3754 19.6323C19.4762 19.0212 21.1885 18.2955 23.0896 18.2955C23.4749 18.2958 23.8597 18.325 24.2409 18.3828C24.5798 18.0469 24.8961 17.6878 25.1875 17.3078C25.0492 17.4852 24.8897 17.6789 24.7142 17.878C24.1775 17.775 23.6329 17.722 23.087 17.7198C22.2239 17.7252 21.3657 17.8537 20.5371 18.1018C21.2848 17.4239 21.8901 16.5968 22.3159 15.6709C22.0792 15.7036 21.8506 15.7527 21.6246 15.8046C21.5422 15.9574 21.4544 16.1074 21.3587 16.2575C21.263 16.4075 21.1566 16.5712 21.0423 16.7213Z" fill="#A1227E"/>
<path d="M22.6987 15.633C22.8636 15.6166 23.0258 15.5975 23.1959 15.5894C23.0258 15.5975 22.8636 15.6166 22.6987 15.633Z" fill="#A1227E"/>
<path d="M21.364 16.2576C21.4597 16.1075 21.5475 15.9575 21.6299 15.8047C21.5475 15.9575 21.4597 16.1075 21.364 16.2576Z" fill="#A1227E"/>
<path d="M19.2608 18.3745C19.0826 18.4973 18.9045 18.6119 18.729 18.7155C18.9045 18.6119 19.0826 18.4973 19.2608 18.3745Z" fill="#A1227E"/>
<path d="M16.8307 19.2996C16.9184 19.1741 17.0115 19.0432 17.1152 18.9067C17.0128 19.0317 16.9178 19.1629 16.8307 19.2996Z" fill="#A1227E"/>
<path d="M16.5886 19.6517C16.6445 19.5644 16.7109 19.4689 16.7774 19.3789C16.7083 19.4689 16.6471 19.5726 16.5886 19.6517Z" fill="#A1227E"/>
<path d="M21.1115 15.9357C21.1989 15.9075 21.2876 15.8838 21.3773 15.8647C21.2876 15.8838 21.1989 15.9075 21.1115 15.9357Z" fill="#A1227E"/>
<path d="M17.4741 19.3379C17.3199 19.4034 17.1737 19.4607 17.0354 19.5125C17.1737 19.4607 17.3199 19.4034 17.4741 19.3379Z" fill="#A1227E"/>
<path d="M18.0617 19.0732C17.8942 19.1551 17.732 19.2288 17.5778 19.297C17.7293 19.2288 17.8915 19.1551 18.0617 19.0732Z" fill="#A1227E"/>
<path d="M18.6918 18.7349C18.511 18.8413 18.3302 18.9368 18.16 19.0241C18.3275 18.9368 18.5083 18.8413 18.6918 18.7349Z" fill="#A1227E"/>
<path d="M16.9689 19.5371C16.8413 19.5835 16.719 19.6244 16.6073 19.6599L16.9689 19.5371Z" fill="#A1227E"/>
<path d="M19.8697 17.9355C19.6942 18.0774 19.5187 18.2084 19.3379 18.3366C19.5187 18.2084 19.6942 18.0638 19.8697 17.9355Z" fill="#A1227E"/>
<path d="M20.476 17.3682C20.3111 17.5346 20.141 17.6928 19.9681 17.8374C20.141 17.6928 20.3111 17.5346 20.476 17.3682Z" fill="#A1227E"/>
<path d="M21.0423 16.7212C20.889 16.9198 20.7248 17.1093 20.5504 17.2887C20.7248 17.1093 20.889 16.9198 21.0423 16.7212V16.7212Z" fill="#A1227E"/>
<path d="M23.1135 19.2998C22.9885 19.3898 22.8476 19.4744 22.7227 19.5563C22.8597 19.4822 22.9905 19.3964 23.1135 19.2998Z" fill="#A1227E"/>
<path d="M24.2249 18.3803C24.0866 18.5194 23.9377 18.6531 23.7809 18.7895C23.9377 18.6558 24.0866 18.5167 24.2249 18.3803C23.8437 18.3225 23.4589 18.2933 23.0736 18.293C23.4589 18.2933 23.8437 18.3225 24.2249 18.3803V18.3803Z" fill="#A1227E"/>
<path d="M22.5498 19.6763C22.3532 19.7908 22.1509 19.8946 21.9436 19.9873C22.1509 19.8946 22.3532 19.7908 22.5498 19.6763V19.6763Z" fill="#A1227E"/>
<path d="M23.6586 18.8931C23.539 18.994 23.4167 19.0895 23.2891 19.185C23.4167 19.0895 23.539 18.994 23.6586 18.8931Z" fill="#A1227E"/>
<path d="M17.014 20.4889C17.2267 20.3334 17.4448 20.1834 17.6681 20.0415C17.4448 20.1834 17.2267 20.3334 17.014 20.4889C17.3304 20.538 17.7027 20.5844 18.1122 20.609C17.7027 20.5844 17.3331 20.538 17.014 20.4889Z" fill="#A1227E"/>
<path d="M15.2406 20.5844C15.285 20.5879 15.3288 20.597 15.3709 20.6117C15.2938 20.3634 15.2406 20.1997 15.2406 20.1997C15.2406 20.1997 15.1875 20.3634 15.1104 20.6117C15.1525 20.597 15.1963 20.5879 15.2406 20.5844Z" fill="#38A861"/>
<path d="M14.8019 23.4955V23.5228C14.8194 24.0697 14.9702 24.6035 15.2406 25.0752C15.5073 24.6024 15.6544 24.0688 15.6687 23.5228V23.501C15.5756 23.1299 15.4958 22.7589 15.4294 22.3933C15.3732 22.2484 15.3065 22.1079 15.23 21.9731C15.1534 22.1079 15.0868 22.2484 15.0305 22.3933C14.9747 22.7616 14.8949 23.119 14.8019 23.4955Z" fill="#38A861"/>
<path d="M14.3153 23.1767V23.3922C14.403 23.043 14.4695 22.7293 14.5227 22.4482C14.427 22.7838 14.3392 23.0566 14.3153 23.1767Z" fill="#38A861"/>
<path d="M15.2433 20.8246C15.2102 20.823 15.1778 20.8144 15.1481 20.7994C15.1184 20.7843 15.092 20.7632 15.0705 20.7373L14.6531 22.055C14.807 21.7065 15.0046 21.38 15.2407 21.0838C15.4753 21.3811 15.6727 21.7074 15.8283 22.055C15.6847 21.5994 15.5278 21.1029 15.4109 20.7373C15.3899 20.7625 15.3643 20.7831 15.3356 20.7981C15.3068 20.8131 15.2755 20.8221 15.2433 20.8246Z" fill="#38A861"/>
<path d="M16.1686 23.2721V23.1793C16.1394 23.062 16.0569 22.7865 15.9532 22.4536C16.0064 22.7264 16.0729 23.0484 16.1606 23.3949C16.1606 23.3539 16.1686 23.3157 16.1686 23.2721Z" fill="#38A861"/>
<path d="M15.2406 20.5845C15.1962 20.5879 15.1524 20.5971 15.1103 20.6118L15.0677 20.7373C15.0892 20.7632 15.1156 20.7843 15.1453 20.7993C15.1751 20.8143 15.2075 20.8229 15.2406 20.8246V20.8246C15.2727 20.8221 15.3041 20.8131 15.3328 20.7981C15.3616 20.7831 15.3871 20.7624 15.4081 20.7373L15.3682 20.6118C15.3261 20.5971 15.2823 20.5879 15.2379 20.5845H15.2406Z" fill="#38A861"/>
<path d="M14.6531 22.055L14.5308 22.4506C14.4776 22.7235 14.4111 23.0454 14.3234 23.3946C14.398 24.2439 14.7173 25.0512 15.2407 25.7136C15.7667 25.0518 16.0863 24.2427 16.158 23.3919C16.0702 23.0454 16.0038 22.7344 15.9506 22.4506C15.9134 22.3251 15.8708 22.1778 15.8283 22.0523C15.6727 21.7047 15.4753 21.3784 15.2407 21.0811C15.0045 21.3782 14.807 21.7056 14.6531 22.055ZM15.4507 22.3933C15.5172 22.7589 15.597 23.13 15.69 23.501V23.5228C15.6725 24.0698 15.5217 24.6035 15.2513 25.0752C14.9809 24.6035 14.8301 24.0698 14.8126 23.5228V23.4956C14.9057 23.13 14.9854 22.7617 15.0519 22.4043C15.1081 22.2593 15.1748 22.1189 15.2513 21.9841C15.3238 22.1156 15.3869 22.2524 15.4401 22.3933H15.4507Z" fill="#38A861"/>
<path d="M14.116 22.0659C14.2062 21.8371 14.3128 21.6155 14.435 21.403C14.4484 21.2761 14.4537 21.1485 14.451 21.021L14.3127 21.0592C13.8798 21.4131 13.4241 21.7367 12.9487 22.0277C12.6833 22.4859 12.5496 23.0118 12.5632 23.5446C13.1147 23.414 13.6111 23.1063 13.9804 22.6661C14.0176 22.497 14.0601 22.3306 14.0894 22.1641C14.0958 22.1307 14.1047 22.0979 14.116 22.0659V22.0659Z" fill="#A1227E"/>
<path d="M13.0258 21.9026C12.9966 21.9408 12.9753 21.9844 12.9487 22.0254C13.4217 21.7343 13.8756 21.4116 14.3074 21.0596C13.8074 21.202 13.3607 21.4958 13.0258 21.9026Z" fill="#A1227E"/>
<path d="M14.435 21.4033C14.3128 21.6159 14.2062 21.8375 14.116 22.0663C14.1043 22.0972 14.0954 22.1292 14.0894 22.1618C14.0601 22.3282 14.0176 22.4946 13.9803 22.6638C14.2408 22.2938 14.3979 21.8581 14.435 21.4033V21.4033Z" fill="#A1227E"/>
<path d="M16.3175 21.9544L16.3654 22.0663C16.3779 22.0978 16.3869 22.1308 16.392 22.1645V22.1809C16.4606 22.3509 16.55 22.5113 16.6579 22.6583C17.027 23.1009 17.5246 23.4107 18.0777 23.5423C18.0914 23.078 17.9947 22.6173 17.7959 22.2C17.238 21.872 16.7047 21.5017 16.2005 21.0923C16.1982 21.384 16.2376 21.6745 16.3175 21.9544V21.9544Z" fill="#A1227E"/>
<path d="M16.2004 21.021V21.0919C16.7046 21.5014 17.2379 21.8716 17.7958 22.1996C17.7447 22.0949 17.6842 21.9953 17.615 21.9022C17.2475 21.4607 16.7517 21.1518 16.2004 21.021Z" fill="#A1227E"/>
<path d="M16.3654 22.066L16.3175 21.9541C16.3388 22.0305 16.3654 22.1042 16.3946 22.1805V22.1642C16.3885 22.1304 16.3787 22.0974 16.3654 22.066Z" fill="#A1227E"/>
</g>
<defs>
<clipPath id="clip0_2319_151">
<rect width="30" height="28" fill="white"/>
</clipPath>
</defs>
</svg>
