<svg width="21" height="21" fill="none" xmlns="http://www.w3.org/2000/svg"><g clip-path="url(#clip0_1734_5773)" fill="#E85D0F"><path d="M1.744 16.624c0-3.412 2.702-6.125 6.1-6.125 2.178 0 4.183 1.136 5.314 3.061l1.481-.874c-.87-1.487-2.178-2.625-3.66-3.238 1.306-.962 2.09-2.537 2.09-4.2C13.07 2.363 10.716 0 7.841 0 4.966 0 2.615 2.363 2.615 5.25c0 1.663.785 3.238 2.09 4.2C1.917 10.676 0 13.387 0 16.625v4.374h10.456v-1.751H1.744v-2.625.002zM4.356 5.25c0-1.925 1.568-3.5 3.486-3.5 1.917 0 3.485 1.575 3.485 3.5 0 1.924-1.568 3.5-3.485 3.5-1.918 0-3.486-1.576-3.486-3.5z"/><path d="M20.998 13.826l-6.622 6.65-4.095-4.113 1.22-1.224 2.875 2.887 5.403-5.424 1.22 1.224z"/></g><defs><clipPath id="clip0_1734_5773"><path fill="#fff" d="M0 0h21v21H0z"/></clipPath></defs></svg>