<svg width="29" height="29" fill="none" xmlns="http://www.w3.org/2000/svg"><path d="M14.497 0a14.5 14.5 0 10.006 29 14.5 14.5 0 00-.006-29z" fill="url(#paint0_linear_2323_86)"/><path d="M13.589 14.484s1.124-3.492.483-6.226c-.642-2.734-.953-3.229-.635-5.299-.473 1.27-1.121 4.816-.46 6.56.66 1.742.612 4.965.612 4.965z" fill="#F1EA39"/><path d="M12.97 14.878s.603-3.53-.448-6.188c-1.05-2.658-1.435-3.127-1.438-5.194-.286 1.27-.403 4.838.52 6.515.925 1.676 1.366 4.867 1.366 4.867zm-.568-.118s-.067-3.537-1.616-6.067c-1.55-2.53-2.02-2.96-2.413-5-.042 1.288.514 4.813 1.749 6.387 1.235 1.575 2.28 4.68 2.28 4.68z" fill="#F1EA39"/><path d="M12.008 14.836s-.864-3.492-2.969-5.797C6.934 6.734 6.376 6.353 5.528 4.388c.247 1.27 1.587 4.686 3.175 6.096 1.587 1.41 3.305 4.352 3.305 4.352z" fill="#F1EA39"/><path d="M11.713 14.986s-1.61-3.321-4.188-5.337C4.947 7.633 4.309 7.34 3.042 5.52c.524 1.23 2.594 4.417 4.445 5.604 1.85 1.188 4.226 3.861 4.226 3.861zm3.527-.467s-1.137-3.493-.505-6.226c.632-2.734.953-3.232.635-5.3.48 1.27 1.14 4.814.486 6.557-.654 1.743-.616 4.969-.616 4.969z" fill="#F1EA39"/><path d="M15.84 14.754s-.606-3.53.448-6.197c1.054-2.667 1.432-3.128 1.435-5.195.286 1.27.403 4.839-.518 6.515-.92 1.677-1.365 4.877-1.365 4.877z" fill="#F1EA39"/><path d="M16.215 14.906s.13-3.536 1.727-6.032c1.597-2.495 2.07-2.927 2.502-4.962.019 1.292-.6 4.807-1.864 6.35-1.264 1.543-2.365 4.644-2.365 4.644z" fill="#F1EA39"/><path d="M16.697 14.767s.953-3.464 3.112-5.734c2.159-2.27 2.73-2.626 3.629-4.575-.28 1.27-1.712 4.65-3.321 6.032-1.61 1.381-3.42 4.277-3.42 4.277z" fill="#F1EA39"/><path d="M16.932 14.948s1.737-3.264 4.397-5.191c2.661-1.928 3.302-2.198 4.639-3.985-.575 1.197-2.768 4.327-4.674 5.451-1.904 1.124-4.362 3.725-4.362 3.725zm-3.382-.432s1.128 3.493.483 6.226c-.644 2.734-.952 3.23-.635 5.3-.476-1.27-1.123-4.817-.463-6.56.66-1.743.616-4.966.616-4.966z" fill="#F1EA39"/><path d="M12.935 14.122s.603 3.53-.45 6.182c-1.055 2.65-1.436 3.127-1.44 5.194-.285-1.27-.4-4.839.522-6.515.92-1.677 1.368-4.86 1.368-4.86z" fill="#F1EA39"/><path d="M12.364 14.236s-.064 3.543-1.617 6.067c-1.552 2.524-2.016 2.96-2.41 5-.044-1.288.512-4.813 1.747-6.387 1.235-1.575 2.28-4.68 2.28-4.68z" fill="#F1EA39"/><path d="M11.97 14.164s-.864 3.492-2.966 5.797c-2.101 2.305-2.663 2.686-3.514 4.651.247-1.27 1.587-4.686 3.175-6.096 1.587-1.41 3.305-4.352 3.305-4.352z" fill="#F1EA39"/><path d="M11.713 14.014s-1.645 3.309-4.245 5.3c-2.6 1.99-3.236 2.282-4.521 4.098.533-1.203 2.638-4.378 4.511-5.563 1.873-1.184 4.255-3.835 4.255-3.835zm3.489.467s-1.137 3.493-.502 6.226c.635 2.734.953 3.233.635 5.3.48-1.27 1.137-4.814.483-6.557-.654-1.743-.616-4.969-.616-4.969z" fill="#F1EA39"/><path d="M15.802 14.246s-.603 3.518.448 6.188c1.05 2.67 1.435 3.127 1.438 5.194.286-1.27.403-4.838-.52-6.515-.925-1.676-1.366-4.867-1.366-4.867z" fill="#F1EA39"/><path d="M16.177 14.1s.13 3.537 1.727 6.033c1.597 2.495 2.073 2.927 2.502 4.962.022-1.292-.6-4.807-1.864-6.35-1.264-1.543-2.365-4.645-2.365-4.645z" fill="#F1EA39"/><path d="M16.662 14.236s.953 3.46 3.112 5.715c2.159 2.254 2.73 2.629 3.629 4.575-.283-1.27-1.711-4.651-3.324-6.033-1.613-1.38-3.417-4.257-3.417-4.257z" fill="#F1EA39"/><path d="M16.846 14.05s1.8 3.238 4.483 5.124c2.683 1.886 3.35 2.146 4.722 3.911-.594-1.2-2.858-4.283-4.763-5.378-1.905-1.096-4.442-3.658-4.442-3.658z" fill="#F1EA39"/><path d="M17.777 14.05h-6.9v.933h6.9v-.934z" fill="#F1EA39"/><defs><linearGradient id="paint0_linear_2323_86" x1="14.5" y1="0" x2="14.5" y2="29" gradientUnits="userSpaceOnUse"><stop stop-color="#EF4137"/><stop offset=".13" stop-color="#DD403F"/><stop offset=".39" stop-color="#AF3D54"/><stop offset=".74" stop-color="#663975"/><stop offset="1" stop-color="#2D368F"/></linearGradient></defs></svg>