<svg width="23" height="25" fill="none" xmlns="http://www.w3.org/2000/svg"><g clip-path="url(#clip0_2319_124)"><path d="M16.09 9.031l-.257-.2a.513.513 0 01.1.157c.047.059.103.043.17.043m-.546-.366l-.054-.034-.055-.007.109.04zm-.544-.205c.081.051.168.093.258.125a.828.828 0 00-.258-.124" fill="#F6A800"/><path d="M15.41 8.693c-.023-.044-.023-.077.041-.072l-.165-.05c.05.032.091.074.124.122m0 0c.018.044.049.093.06.116a.617.617 0 00-.06-.116m-.444.557c-.054 0 .042-.172-.072-.177a5.662 5.662 0 01-.683-.124c-.108 0-.204-.24-.317-.23-.258-.028-.92.116-.56.178a7.98 7.98 0 011.341.302 4.4 4.4 0 011.14.382c.091.06.171.137.237.225a1.97 1.97 0 00-.289-.351c-.144-.176-.498-.098-.804-.204m2.441 1.867a1.02 1.02 0 00-.1-.158.846.846 0 00-.29-.749.608.608 0 01-.027.153c.082.129.136.124.113-.02.044.337.126.603.18.898.05-.029.114-.034.124-.124m-.08.294l-.046-.17-.013.007.054.168.005-.005z" fill="#F6A800"/><path d="M13.814 8.228a10.964 10.964 0 00-2.107-.284c-.054.034-.09.08-.162.054a.464.464 0 00-.16-.07h-.301l-.106.024c-.057.02-.036.049 0 .08.04.018.077.041.11.07-.022-.018-.077-.044-.107-.07a.645.645 0 00-.166-.052 1.174 1.174 0 01-.28.042.656.656 0 01.273-.036l.17-.029.049-.013c-.23 0-.454.016-.686.031l-.142.031c-.157.05-.314.106-.438.029l-.119.015H9.62c-.17.018-.343.062-.515.088-.098.06-.199.134-.305.199l-.139-.06a.41.41 0 01-.152.153c.103.023.204.064.291.077.134.062.194-.258.377-.111-.183-.155-.243.173-.377.111a1.637 1.637 0 01-.291-.077.917.917 0 01-.547.095.533.533 0 01.547-.095.41.41 0 00.152-.153l.14.06c.105-.065.206-.14.304-.2a8.37 8.37 0 00-1.011.259 5.947 5.947 0 00-2.852 1.84 3.062 3.062 0 00-.28 3.572c.773 1.226 2.01 1.88 3.199 2.323 2.488.795 4.795.36 7.402-.43a4.58 4.58 0 001.756-1.212 4.46 4.46 0 001.1-2.094c-.154-1.76-1.116-.733-1.129-.774-.272.25-.502.541-.68.865-.237.428-.616.76-1.07.94.832-.452-.199.89-1.274.774-1.338-.157-2.906.738-4.46.395-.366-.083-.756-.116-1.176-.232-2.14-.821-3.524-2.12-1.771-3.67.4-.401.825-.776 1.274-1.122a4.7 4.7 0 011.131-.315c.503-.124.931-.287 1.36-.408-.462.088-.916.21-1.36.361-.343.101.176-.307.413-.415.095-.062.296.126.39.064a4.12 4.12 0 00.657-.23c.098-.051.103.145.152.122.327-.057.582-.33.799-.258.152.027.303.062.451.105.09.023.181.035.274.037l.19-.037a5.69 5.69 0 011.475 0V8.58a2.427 2.427 0 01-.817-.322c.118.07.09.121-.052.103l-.1-.114a.926.926 0 01.742.189l.178-.018c.07.046.049.108.051.162l.168.034a2.253 2.253 0 00-.425-.359" fill="#F6A800"/><path d="M10.808 7.983l.139-.023c-.19 0-.379.018-.572.023.11.088.257.047.433 0z" fill="#F6A800"/><path d="M11.955 10.1v-.349a4.652 4.652 0 01.077-.906c.057-1.167.098-2.347.073-3.545h-.047v-.852c.01-.596.062-1.192.155-1.781.099-.48.154-.967.165-1.456a1.098 1.098 0 00-.384-.868 1.131 1.131 0 00-.565-.34c-.116 0-.36.286-.73.862-.368.576-.559.911-.559 1.002 0 .038.041.23.121.575.101.57.142 1.15.121 1.728a1.55 1.55 0 01-.064.423v13.049c.023.4.041.87.052 1.422.025 1.968.08 3.259.154 3.873.083.685.121 1.375.116 2.065a31.189 31.189 0 001.225-6.088c.033-.333.064-.637.098-.924-.322-2.68-.163-5.275 0-7.89" fill="#1A171B"/><path d="M9.777 14.626s2.186 0 2.622-.173l.172 1.934s-2.354.351-3.055 0l.258-1.76" fill="#F6A800"/><path d="M1.784 22.836l-.039-.278c-.257-1.712-.317-3.44-.446-5.358-.113-1.345-.095-2.886-.095-4.237.046 3.197.144 6.558.645 9.58.06-.368.076-.74.046-1.111-.126-1.033-.17-2.047-.258-3.06h-.126c-.018-2.873-.3-5.566-.08-8.45.015.1.046.044.064.02.02-.02.036 0 .031.171 0-.176 0-.191-.03-.17a91.089 91.089 0 00.133 8.31c-.257-4.389-.09-8.628.085-13.138 0-.194.021-.576.031-.775a17.5 17.5 0 01-.023-2.324c-.173.186-.459-.599-.466.945h-.13C1.035 1.412.612.808.406 2.347.195 4.079.219 6.403.103 8.543c-.082 1.55-.129 3.099-.067 4.648.103 2.137.11 4.469.376 6.594.06.774.08 2.137.21 2.517.072.276.139.279.213.232-.131-1.27-.206-2.538-.28-3.79-.104-1.549-.2-3.08-.259-4.616.09 1.502.178 3.049.258 4.616.088 1.245.188 2.5.34 3.744.065-.052.127-.1.197-.031 0 0 .033.382.046.578.227.752.438.535.567.137.026-.1.057-.212.08-.338" fill="#E2001A"/><path d="M9.075 2.264h-.11c-.728-.052-1.437-.17-2.228-.155-.554.026-1.178-.023-1.725-.023 1.29-.065 2.663.041 3.965.077a.838.838 0 00-.433-.22c-.44-.061-.869-.058-1.289-.105a.97.97 0 010 .132c-1.191-.196-2.292.062-3.457-.073.041-.015.015-.043 0-.064 0-.018 0-.034.07-.036-.07 0-.075.018-.07.036 1.152 0 2.238-.023 3.421 0-1.833-.088-3.558-.052-5.358 0H1.54a2.856 2.856 0 01-.91.142c.08.165-.224.493.39.423v.13c-.612.175-.851.635-.225.753.71.132 1.64-.036 2.488 0 .609.03 1.218.018 1.825-.033.833-.085 1.73-.034 2.555-.052.302 0 .794.186.957.116.116-.023.129-.09.129-.17a11.689 11.689 0 00-1.467-.189A14.02 14.02 0 005.476 3a8.97 8.97 0 011.805-.047c.49.016.979.057 1.464.124a.258.258 0 01.034-.198l.224.043c.335-.105.322-.34.193-.516-.03-.041-.072-.088-.105-.132M.606 23.007h.108c.701 0 1.385.085 2.145.062.534-.031 1.137.018 1.663.028-1.253.042-2.578-.046-3.813 0 .121.103.268.17.425.194.418.026.828.023 1.233.052v-.132c1.142.17 2.21-.072 3.336.09-.041.018-.016.047 0 .065 0 .02 0 .036-.064.036.07 0 .074-.015.064-.036-1.114-.029-2.158-.018-3.29-.023 1.753.054 3.424.095 5.177.08h.302a2.76 2.76 0 01.892-.135c-.075-.165.224-.493-.377-.423v-.132c.599-.165.828-.627.222-.751-.678-.134-1.58 0-2.398-.052a12.787 12.787 0 00-1.778 0c-.815.086-1.697.018-2.509.075-.297.016-.794-.152-.949-.072a.153.153 0 00-.121.178c.485.06.97.1 1.449.122.59.01 1.18-.01 1.769-.063a9.206 9.206 0 01-1.769.063c-.48 0-.962-.021-1.439-.055a.28.28 0 01-.023.2l-.222-.032a.32.32 0 00-.24.382.324.324 0 00.088.16l.116.127M22.425 2.024l-.113.02c-.702.096-1.398.055-2.179.109-.57.034-1.143.034-1.714 0 1.289-.034 2.652.016 3.89-.207a.827.827 0 00-.446-.139c-.42.023-.833.039-1.243.05v.13c-1.168-.115-2.26.12-3.429-.064.039-.02.018-.044 0-.067 0-.02 0-.036.07-.033-.072 0-.08.012-.07.033a37.5 37.5 0 003.37 0c-1.776.036-3.496-.075-5.334-.093h-.315a3.19 3.19 0 01-.938.127c.077.162-.235.49.39.423v.134c-.625.158-.857.615-.233.752.694.131 1.627 0 2.48.09a11.94 11.94 0 001.872.036c.856-.082 1.805-.026 2.658-.152.312-.023.861.075 1.031-.02a.155.155 0 00.106-.187c-.515 0-1.031 0-1.547.016-.621.026-1.245.057-1.866.108.62-.072 1.242-.108 1.866-.108.516-.026 1.01-.044 1.516-.08a.272.272 0 010-.202h.232c.312-.16.235-.392.08-.555l-.134-.11" fill="#E2001A"/><path d="M13.76 23.541l.392-.018c2.418-.09 4.852.052 7.559-.015h.5l.415-.403v-.96c0-.501 0-1.012.018-1.524v-2.995c.031 1.129.05 2.27.044 3.421 0 .57 0 1.147-.018 1.725v.338c.098-.093-.856.832-.454.44h-1.369c-2.284.017-4.535-.027-6.675.084a9.793 9.793 0 001.547.153c1.447 0 2.888.018 4.321.018v-.13c.516.024 1.01.034 1.511.037h.665c-.557.542.774-.741.627-.612v-.08l.015-.752c.018-.999 0-1.988-.015-2.976-.036-1.976-.106-3.946-.067-5.983.023.145.044.06.067.026.018-.026.033 0 .036.258 0-.258-.018-.27-.036-.258.023 2.006.07 3.948.087 5.892v3.86c.152-.147-1.33 1.29-.703.681.322-.307-.71.698.719-.691v-.292c.017-.775.027-1.55.03-2.324 0-1.549 0-3.08-.035-4.619-.05-3.07-.121-6.15-.042-9.294 0-.259.018-.809.031-1.074a24.093 24.093 0 01.075-3.228c-.178.258-.428-.854-.515 1.312h-.13c0-2.171-.363-3.05-.69-.87-.333 2.458-.258 5.747-.258 8.745 0 2.178.026 4.347.113 6.508.067 1.487.08 3.042.06 4.588v.517l.665-.648h-1.805c-.773 0-1.521.02-2.264.036-1.077 0-2.972-.135-3.516-.036-.39.044-.405.116-.343.19 1.781 0 3.553.06 5.293.073l1.606-.016h1.006c-.836.814-.233.223-.418.403v-.594c0-1.074-.016-2.149-.047-3.224.047 1.053.075 2.117.065 3.193v.623c-.361.348.487-.476.4-.39h-2.63c-1.738 0-3.486-.031-5.237 0 .065.067.127.137.019.196h-.813c-1.08.165-.807.392-.257.555.136.036.288.072.461.111" fill="#E2001A"/></g><defs><clipPath id="clip0_2319_124"><path fill="#fff" d="M0 0h23v25H0z"/></clipPath></defs></svg>