<svg width="18" height="32" fill="none" xmlns="http://www.w3.org/2000/svg"><g clip-path="url(#clip0_2319_142)"><path d="M9 9.741c.237-.696 0-2.278 0-2.278.395.616.621 2.463.621 2.463C9.82 8.577 9 6.16 9 6.16c.72 1.121 1.574 4.557 1.574 4.557C10.534 8.904 9 4.766 9 4.766c.952.976 3.004 7.669 3.004 7.669C11.72 8.904 9 3.275 9 3.275c1.978 2.187 4.552 11.158 4.552 11.158C13.043 9.368 9.107 2.047 9 1.838c4.049 6.09 5.651 13.808 5.651 13.808C14.606 10.076 9 .35 9 .35c5.835 8.005 6.781 16.317 6.781 16.317C16.348 10.132 9.986.305 9.986.305c7.579 10.16 6.94 17.896 6.94 17.896C18.296 11.733 11.066 0 11.066 0c6.287 6.755 6.886 15.375 6.886 15.375.238 3.627-.464 7.254-2.026 10.468C13.967 29.873 9 32 9 32s-4.968-2.137-6.929-6.157C.508 22.629-.194 19.003.045 15.375c0 0 .602-8.62 6.892-15.375 0 0-7.237 11.733-5.866 18.201 0 0-.636-7.737 6.948-17.896 0 0-6.358 9.827-5.795 16.363 0 0 .938-8.312 6.781-16.317 0 0-5.62 9.726-5.651 15.295 0 0 1.616-7.718 5.651-13.808-.107.21-4.038 7.53-4.552 12.598 0 0 2.566-8.971 4.552-11.157 0 0-2.726 5.628-3.006 9.159 0 0 2.054-6.693 3.006-7.67 0 0-1.537 4.139-1.576 5.952 0 0 .847-3.436 1.576-4.556 0 0-.822 2.416-.624 3.765 0 0 .226-1.847.624-2.463 0 0-.24 1.582 0 2.278L9 9.741z" fill="#1F9549"/><path d="M9 29.96c-3.066 0-5.547-2.772-5.547-7.627s2.481-9.96 5.547-9.96 5.544 5.102 5.547 9.96C14.55 27.191 12.063 29.96 9 29.96z" fill="#fff"/><path d="M9 29.386c-2.865 0-5.188-2.59-5.188-7.13 0-4.541 2.323-9.31 5.188-9.31 2.865 0 5.174 4.769 5.174 9.31 0 4.54-2.312 7.13-5.174 7.13z" fill="#F79433"/><path d="M10.873 27.459c-.847.341-1.198-.108-1.873-.108s-.873.45-1.89.086c-1.354-.483-2.094-2.897-2.094-4.652 0-2.592 1.783-3.947 3.984-3.947s3.982 1.355 3.982 3.935c0 1.782-.746 4.135-2.108 4.686z" fill="#fff"/><path d="M10.26 26.868c-.89 0-.969-1.712-1.268-1.712-.238 0-.317 1.774-1.108 1.774-1.263 0-2.484-2.036-2.484-4.003 0-2.432 1.512-3.519 3.592-3.519s3.605 1.087 3.605 3.52c0 1.899-1.249 3.94-2.337 3.94z" fill="#2A2664"/></g><defs><clipPath id="clip0_2319_142"><path fill="#fff" d="M0 0h18v32H0z"/></clipPath></defs></svg>