<svg width="30" height="28" fill="none" xmlns="http://www.w3.org/2000/svg"><g clip-path="url(#clip0_2319_151)"><path d="M16.24 12.097l.048-.11-.048.11zm-.465 5.331c-.021-.13-.045-.273-.064-.409.019.142.043.278.064.41zm.055.3l-.023-.123.024.123zm-1.01-.778zm-.773-5.718zm2.419.368l.04-.079-.04.08zm-2.69-.845l.06.104c-.029-.033-.029-.069-.06-.104zm1.321 1.505c.09.28.167.562.229.85a8.06 8.06 0 01.2-.691 9.409 9.409 0 011.427-2.633c-.027-.273-.061-.513-.096-.764a1.702 1.702 0 00-.034-.229l-.09-.546a1.189 1.189 0 00-.038-.212 29.622 29.622 0 00-.14-.68 25.66 25.66 0 00-.158-.646l-.048-.178c-.04-.149-.08-.293-.12-.433l-.047-.164a20.102 20.102 0 00-.861-2.395l-.08-.18-.093.215-.04.09-.07.166c-.015.039-.031.082-.05.123-.019.041-.043.112-.066.17l-.059.15a14.04 14.04 0 00-.18.491l-.07.196c-.026.074-.05.15-.077.226-.027.077-.037.115-.059.175-.02.06-.05.164-.077.248l-.055.183-.08.273a20.008 20.008 0 00-.316 1.23l-.048.208c-.022.103-.043.21-.067.316-.024.106-.03.153-.045.23-.016.076-.04.212-.059.321-.018.11-.026.167-.042.248a7.05 7.05 0 00-.05.325c-.017.11-.035.273-.054.396a.396.396 0 01-.018.144 9.102 9.102 0 011.531 2.778zm-.795-.507l.066.148-.066-.148zm2.43-.638l.019-.03-.019.03z" fill="#8162A2"/><path d="M15.16 19.674zm.243-.221l-.027.065.027-.065zm-.163.392c.043-.093.091-.207.144-.333l.027-.065c.056-.134.114-.273.175-.434-.138-.447-.25-.903-.332-1.364-.098.453-.22.9-.364 1.34.087.229.178.458.265.679l.086.177zM12.366 4.946c-.1.131-.196.251-.281.355l-1.33 1.637a11.68 11.68 0 012.327 1.972c.305-2.15.928-4.24 1.845-6.198-.984.218-1.957 1.46-2.56 2.234zm-4.57 5.624c.616.165 1.217.384 1.797.654a12.6 12.6 0 01.508-3.492l-2.305 2.837zM6.22 15.033a10.496 10.496 0 011.656.032 11.662 11.662 0 01-.745-3.677l-3.284 4.051a9.611 9.611 0 012.372-.406zm-2.559.761a.312.312 0 01-.024-.098l-2.592 3.203c-.532.654-.683 1.091-.5 1.479a12.64 12.64 0 014.568-2.358 15.002 15.002 0 01-.45-.578l-.018-.025a10.347 10.347 0 01-.963-1.582l-.02-.041zM15.56 2.726a22.41 22.41 0 011.86 6.468 11.896 11.896 0 012.37-2.092l-1.462-1.798c-.085-.104-.181-.227-.285-.358-.574-.76-1.52-1.97-2.483-2.22zm5.256 8.531a10.946 10.946 0 011.824-.671l-2.26-2.78c.306 1.123.453 2.285.436 3.45zm1.766 3.806a10.214 10.214 0 011.622-.03 9.684 9.684 0 012.366.412l-3.244-4.01a11.665 11.665 0 01-.744 3.628zm6.812 3.835l-2.606-3.208a.347.347 0 01-.024.104l-.016.032a11.147 11.147 0 01-1.43 2.183 12.638 12.638 0 014.6 2.36c.234-.478-.05-.89-.524-1.47z" fill="#38A861"/><path d="M6.206 18.386l.004.004-.004-.004zm.561.507l-.12-.098.12.098zm1.106.783l-.165-.104.165.104zm3.839 1.517a8.376 8.376 0 01-3.456-.687 8.326 8.326 0 01-2.484-1.768l.059.07-3.67 1.13a10.866 10.866 0 00-.872.581l-.053.038-.244.186c.071.057.157.123.266.194.457.341.937.65 1.435.925 1.101.608 2.813 1.334 4.704 1.334a4.98 4.98 0 00.532-.02l.17-.016c.118-.005.237-.019.353-.04l.19-.03c.108-.017.217-.036.324-.058l.186-.038c.109-.022.215-.05.321-.076l.17-.044c.115-.03.227-.066.338-.101l.13-.038c.312-.104.61-.216.891-.339l.123-.052.29-.13.143-.071.242-.12.146-.077c.072-.035.141-.074.21-.112l.136-.079.18-.106.147-.088.125-.079c.226-.142.428-.272.598-.398-.303.047-.643.085-1.016.107-.194-.006-.406.002-.614.002zM7.307 19.3l-.165-.12.165.12z" fill="#8162A2"/><path d="M5.83 18.808l-.058-.07c-.074-.074-.157-.148-.228-.224-1.194.289-2.335.77-3.382 1.424l3.669-1.13zm4.372-6.618c.016.136.032.273.053.412a4.476 4.476 0 01-.053-.412zm.346 1.689zM8.825 15.8l.226.051a2.037 2.037 0 01-.226-.052zm1.526-2.636a6.57 6.57 0 01-.082-.423c.029.139.055.284.082.423zm.556 1.596zm.925 1.514l-.08-.107.08.107zm-.487-.712l-.071-.117.071.117zm-1.042.139c.236.107.467.226.691.358a8.327 8.327 0 01-1.38-4.186 11.244 11.244 0 00-1.595-.64l-.186-.058-.162-.044v.227a11.22 11.22 0 00.244 1.94.899.899 0 00.03.136c.032.13.063.273.1.404a.68.68 0 00.043.155c.043.145.09.295.141.445l.043.13c.069.195.146.394.231.59a7.716 7.716 0 011.8.543zm3.005 2.169l-.032-.03.032.03zm-3.983-1.932zm4.262 3.345c.024.033.042.063.064.096-.022-.033-.04-.063-.064-.096zm-1.253-2.393c-.02-.024-.042-.046-.063-.073.02.027.042.049.063.074zm1.424 1.36l-.025-.017.025.016zm3.001-.074l-.027.033.027-.033zm.451-.407l-.055.052.056-.052zm2.867-4.831a.814.814 0 01-.04.19c.016-.062.027-.128.04-.19zm.263 3.279zm-1-.109a7.427 7.427 0 012.609-.955c.085-.194.16-.39.229-.581 0-.044.026-.085.042-.126.05-.152.099-.303.141-.45l.04-.15a8.43 8.43 0 00.101-.41l.032-.13c.034-.166.066-.33.093-.48.08-.483.13-.97.152-1.46v-.226l-.163.043a11.14 11.14 0 00-1.837.729 8.618 8.618 0 01-1.438 4.196zm-.685.019c-.024.035-.05.068-.075.1a.752.752 0 01.075-.1zm-.976 1.176zm1.446-1.888l-.072.12.072-.12zm-.97 1.358l-.043.047.043-.047zm1.361-2.111l-.045.098.045-.098zm-2.739 4.711zm4.863-3.584c-.095.021-.183.051-.265.076.085-.025.175-.041.265-.06v-.016zm2.14 3.001l-.121.103.122-.103zm.798.019a8.263 8.263 0 01-2.414 1.697 8.38 8.38 0 01-3.456.687c-.208 0-.42 0-.633-.019-.354-.022-.68-.057-.973-.101.064.046.133.096.207.145l.396.256.123.076.138.085.189.11.14.078.219.12.143.074.247.125.139.066.292.134.12.052c.282.122.58.237.89.338l.118.035c.114.038.234.074.353.107l.162.04.325.08.183.035c.107.022.216.041.325.058l.188.03c.117.016.237.027.354.038l.168.016c.175 0 .35.02.531.02 1.901 0 3.611-.727 4.712-1.335.499-.274.979-.583 1.436-.925l.265-.194-.25-.188-.047-.035a17.696 17.696 0 00-.36-.254 16.26 16.26 0 00-.46-.297l-3.77-1.154zm-1.289.376zm-.564.387l-.175.11.175-.11zm2.159-1.066c-.095.104-.204.202-.305.303l3.775 1.162a11.658 11.658 0 00-3.47-1.465z" fill="#8162A2"/><path d="M14.871 4.27l.059-.15-.059.15zm1.311 1.661l.048.164-.048-.164zm.168.598l.047.177-.048-.177zm-2.715 2.403l.05-.325c-.016.112-.034.219-.05.325zm1.353-4.982c.019-.04.035-.084.05-.122-.015.038-.031.081-.05.122zM14.4 5.607c.027-.085.054-.167.077-.249-.023.082-.05.164-.077.249zm.282-.847c.037-.106.075-.207.112-.305-.037.112-.075.2-.112.306zm2.013 3.275c.006.072.018.143.037.212a1.333 1.333 0 00-.037-.212zm-2.749-.74zm.59-2.112c.027-.076.05-.152.077-.226-.027.074-.05.156-.077.226zm-.705 2.628zm2.992.974c.006.077.017.154.034.23-.01-.083-.024-.153-.034-.23zm-2.558-2.728l.08-.273-.08.273zm.843-2.396l.04-.09-.04.09zm-1.38 4.701c.018-.11.04-.216.058-.322-.018.106-.04.213-.058.322zm1.656 11.156c-.053.126-.1.24-.143.333.042-.093.09-.21.143-.333zm.202-.491c-.06.158-.12.3-.175.434.056-.142.114-.284.175-.434zm-5.501 3.713l-.13.038.13-.038zm-8.798-2.218zm6.796 2.641l-.17.016.17-.016zM.99 20.746l.244-.186-.245.186zm7.635 2.349l-.188.024.188-.024zm-6.471-3.157c-.186.115-.357.226-.51.33.153-.104.329-.215.518-.33h-.008zm10.465 1.618l-.146.087.146-.087zm.729-.48c-.17.12-.373.256-.599.398a6.82 6.82 0 00.598-.398zm-1.056.679l-.149.085.149-.085zm-3.156 1.244l-.186.038.186-.038zm.492-.12l-.17.044.17-.044zm1.914-.734l-.143.071.143-.071zm.404-.199l-.149.079.15-.08zm-.837.404l-.123.051.123-.051zm-5.563-3.836zm2.508-4.671zm-.131-.545zm-.09-2.123l.186.057-.186-.057zm.404 3.263zm14.393-1.621c-.027.15-.059.314-.093.48.045-.166.066-.33.093-.48zm-.266 1.171c-.043.147-.09.297-.141.45.05-.153.093-.303.14-.45zm.141-.56a8.35 8.35 0 01-.101.41c.037-.14.071-.268.1-.41zm-1.718-1.525zm1.393 2.66a9.437 9.437 0 01-.228.582 4.97 4.97 0 00.228-.582zm-3.507 7.465l-.143-.074.143.074zm.797.373l-.119-.051.12.051zm-.411-.185l-.139-.066.139.066zm-1.736-.993zm3.156 1.552l-.117-.035.117.035zm-2.167-.944l-.141-.076.14.076zm-.33-.188l-.138-.084.138.084zm-.261-.161l-.396-.256c.12.081.253.166.396.256zm4.294 1.638l-.188-.03.188.03zm7.214-2.563l.25.188-.25-.188zm-.415-.289c.136.093.266.177.359.254-.106-.077-.21-.161-.359-.254zm-6.277 2.911l-.168-.016.168.016zm-1.551-.256l-.162-.041.162.04zm.516.114l-.183-.035.183.035zm7.312-2.769z" fill="#fff"/><path d="M12.098 19.63c.234.128.462.273.686.41a11.84 11.84 0 00-.686-.41zm-.928-1.272l-.072-.049.072.05zm.577.366l-.067-.044.067.044zm.625.336l-.107-.055.107.054zm.566.259l-.085-.036.085.036zm-2.959-1.954l-.083-.087.083.087zm-.043.735a7.682 7.682 0 01-.952-1.032 7.997 7.997 0 01-.845-1.392c-.123-.019-.266-.027-.378-.038-.173-.019-.343-.04-.532-.049a12.843 12.843 0 00-.989 0c-.647.034-1.29.125-1.922.273.032.06.07.128.112.202.246.423.518.83.813 1.22.07.09.147.185.226.272.08.087.16.191.245.29a8.491 8.491 0 011.659-.164 9 9 0 012.563.417zm.644-.19l-.104-.084.104.085zm-1.165-1.189zm4.023 3.762l-.037-.024.037.024z" fill="#A1227E"/><path d="M13.4 20.46c-.201-.145-.406-.274-.616-.42-.21-.148-.452-.274-.686-.41-1.101-.603-2.81-1.337-4.709-1.337-.2-.004-.4.004-.598.025-.194.008-.387.03-.577.065.138.137.284.273.438.407l.12.098c.12.1.245.202.375.297l.165.12c.127.09.266.178.401.273l.165.104c.197.112.396.218.606.31a8.193 8.193 0 003.83.617 4.78 4.78 0 00.595-.052c.189-.021.367-.046.531-.073l-.04-.025zm.432-.814c-.054-.085-.118-.177-.181-.273-.022-.033-.04-.063-.064-.095l-.266-.382a8.781 8.781 0 00-3.236-2.68 6.801 6.801 0 00-.758-.272c-.087-.027-.178-.05-.266-.074l-.226-.052a7.653 7.653 0 00.585.909c.15.192.31.375.482.546l.082.087c.16.163.327.316.497.46l.104.085c.17.143.348.276.532.399l.071.049c.17.114.338.224.508.322l.07.043c.172.102.35.193.531.273l.107.055c.165.082.327.155.48.224l.086.035a9.725 9.725 0 00.867.328h.029l-.034.013z" fill="#A1227E"/><path d="M6.79 18.317c.197-.013.397-.024.599-.024 1.896 0 3.608.726 4.709 1.337.234.129.462.265.686.41.212.133.415.272.617.42l.037.024c.335-.055.609-.115.798-.164l-.112-.202c-.072-.125-.17-.273-.285-.466h-.032a9.61 9.61 0 01-.867-.327l-.084-.025a11.932 11.932 0 01-.482-.224l-.106-.055c-.17-.087-.343-.18-.532-.272l-.056-.069a8.756 8.756 0 01-.508-.322l-.071-.049a13.837 13.837 0 01-.532-.398l-.104-.085a7.21 7.21 0 01-.497-.46l-.082-.088a10 10 0 01-.482-.546c-.151-.185-.218-.302-.319-.458a7.373 7.373 0 01-.266-.45 7.83 7.83 0 00-.694-.136 7.64 7.64 0 001.798 2.422 9.063 9.063 0 00-2.547-.382c-.557 0-1.113.055-1.66.164.147.166.304.335.476.505a7.83 7.83 0 01.577-.066l.022-.014zm-1.065-.441a10.995 10.995 0 01-.245-.29c.085.096.16.191.245.29zM7.24 15.59c.178.007.356.023.532.049-.184-.02-.346-.041-.532-.05zm1.25 4.397a6.74 6.74 0 01-.606-.31c.194.117.397.221.606.31zm4.419.57z" fill="#A1227E"/><path d="M6.783 18.32c-.194.008-.387.03-.577.066a8.34 8.34 0 01.577-.066zm.925 1.253a5.217 5.217 0 01-.401-.273c.127.1.26.192.401.273zm-.918-1.256zm5.994 1.723c.21.133.415.272.617.42-.202-.145-.391-.287-.617-.42zm-5.642-.85a4.36 4.36 0 01-.375-.297c.127.101.244.202.375.297zm5.77 1.368zm-6.265-1.763zm7.16.851a6.885 6.885 0 01-.412-.145 2.8 2.8 0 00.412.145zm-3.911-2.368a9.576 9.576 0 01-.481-.546c.15.191.311.373.481.546zm3.497 2.224zm-4.334-3.637c.087.024.178.046.266.073-.088-.027-.179-.049-.266-.073zm1.417 1.961zm3.174 1.553c.064.09.128.183.181.273-.055-.08-.114-.18-.18-.273zm-.34-.478zm-2.212-.591zm.582.37a8.703 8.703 0 01-.507-.322c.163.118.332.225.508.322zm1.173.603zm-4.02-3.47zm3.432 3.192c-.17-.087-.343-.18-.531-.273.188.093.361.186.531.273zm1.005-3.634h-.005l.004.004v-.004zm.288-1.708a2.026 2.026 0 00-.027-.218c.01.073.01.144.027.218zm-1.578-.109l.073.076-.072-.076zm1.455-1.951v-.657c.003.215 0 .442 0 .657zm-.502 3.162l.029.052-.03-.052zM11.375 13l.093.08-.093-.08zm-.612-.456l.075.052-.075-.052zm2.909 1.959l-.032-.185.032.185zm-.194-1.751a.918.918 0 00-.019-.224c.005.088.014.161.019.224zm-.498 1.091l.056.076a19.463 19.463 0 01-.146-2.327c0-.646.034-1.292.101-1.934a11.537 11.537 0 00-1.576-1.544l-.03-.025-.218-.172-.045-.035-.175-.131-.043-.033-.175-.123c-.024.074-.051.156-.078.251a12.571 12.571 0 00-.417 1.992v.084c-.016.14-.032.273-.043.434v.085c0 .153-.02.308-.024.469v.608a8.691 8.691 0 012.814 2.325z" fill="#A1227E"/><path d="M14.653 17.786c.027-.118.056-.24.082-.371.027-.131.059-.303.085-.464a9.754 9.754 0 00-.247-4.507 7.891 7.891 0 00-.205-.546l-.066-.147a12.187 12.187 0 00-.178-.377 2.512 2.512 0 00-.077-.144 6.373 6.373 0 00-.21-.374c-.022-.033-.04-.068-.061-.104a10.39 10.39 0 00-.29-.439c-.016.207-.027.42-.035.633-.008.213 0 .437 0 .657 0 .317 0 .628.024.936a.9.9 0 00.019.224c.016.232.032.461.053.682.005.073.014.146.026.218.027.221.054.442.083.655l.032.186c.034.218.069.433.109.64v.017c.407.841.697 1.737.861 2.66l-.005-.035zm-1.377-2.412a6.006 6.006 0 00-.303-.546l-.03-.052a6.577 6.577 0 00-.88-1.135l-.072-.07a7.577 7.577 0 00-.513-.475l-.093-.071c-.178-.142-.356-.273-.531-.404l-.075-.052a10.593 10.593 0 00-.561-.355c0 .137.027.273.048.41a.885.885 0 00.024.141c.024.14.05.273.082.423a.752.752 0 00.037.167 7.14 7.14 0 00.497 1.4c.112.237.237.466.368.684l.071.117c.13.21.265.412.407.606l.08.107c.143.19.29.373.439.545.02.027.042.05.063.074.297.335.611.653.942.952l.034.03c.15.134.293.254.426.363l.024.016c.135.112.265.208.372.29a22.746 22.746 0 01-.856-3.165zm-3.092-5.02c.005-.146.02-.29.042-.434-.016.14-.032.28-.043.434zm.05-.519zm.933-1.92l.218.171a4.857 4.857 0 00-.218-.171zm-1.012 3.576v-.48a6.628 6.628 0 000 .48zm2.836-1.822zm-2.262-2.076l.175.123-.175-.123z" fill="#A1227E"/><path d="M10.763 12.544l.075.052c.18.126.359.273.531.404l.093.08c.176.147.346.305.514.474l.071.076a6.294 6.294 0 01.88 1.135l.03.052c.111.183.21.368.303.546.418.86.71 1.78.867 2.728.029.172.05.333.071.488l.186.134a6.11 6.11 0 00.077-.254c.027-.095.067-.223.102-.357-.038-.11-.078-.216-.115-.325a22.299 22.299 0 01-.672-2.633c-.04-.207-.075-.422-.11-.64l-.031-.186c-.03-.213-.056-.434-.083-.655a2.026 2.026 0 00-.026-.218c-.022-.221-.038-.45-.054-.682a.917.917 0 00-.018-.224c-.016-.308-.024-.62-.024-.936v-.657c0-.216.018-.426.034-.633a9.576 9.576 0 00-.491-.644 18.922 18.922 0 00.037 4.262l-.03-.088a8.68 8.68 0 00-2.826-2.338c.005.225.02.45.048.674.186.12.375.24.561.365zm-.609-1.636c0-.161.014-.317.024-.47-.01.153-.021.309-.024.47zm.793-3.16l.175.131-.175-.13z" fill="#A1227E"/><path d="M13.542 13.445c-.022-.221-.038-.45-.054-.682.005.228.022.456.054.682zm.098.873c-.03-.213-.056-.434-.082-.655.026.221.053.453.082.655zm.14.827zm.956 2.27c-.027.13-.056.253-.083.37.027-.122.056-.24.082-.37zm-.952-2.255c.17.892.395 1.771.672 2.633.037.11.077.216.115.325l.074-.297a10.217 10.217 0 00-.861-2.66zm.584-3.26zm-.885-1.587zm-.023 2.226zm.026-2.224zm.351.543c.074.123.143.246.21.374-.067-.117-.136-.25-.21-.374zm.287.53c.061.123.12.248.178.376a4.082 4.082 0 00-.178-.376zm-1.577 2.815zm-1.683.459zm.41.783a5.798 5.798 0 01-.367-.685c.111.237.242.466.367.685zm-.881-2.115a.745.745 0 00-.037-.166c.014.054.024.111.037.166zm1.877 3.487zm1.006-1.444a22.4 22.4 0 00.861 3.165 8.162 8.162 0 01.077.058c-.02-.156-.042-.317-.072-.489a9.852 9.852 0 00-.866-2.733zm-1.524.795zm-1.55-3.978zm.072.562a1.332 1.332 0 00-.024-.142c.005.035.016.084.024.142zm1.779.878zm1.68 4.603c-.133-.11-.266-.23-.425-.363.149.134.292.254.425.363zm-.771-3.416zm-.627 2.073zm-.867-3.81zm-.63-.484c.18.126.359.273.531.404a7.416 7.416 0 00-.531-.404zm6.125.701c-.003.068-.01.135-.02.202l.02-.202zm.567 1.477zm-.505-2.334v.23a1.512 1.512 0 010-.23zm1.364 1.207l.08-.082-.08.082zm.582-.552l.077-.062-.077.063zm-1.441-3.12c.048.529.074 1.072.074 1.637a19.37 19.37 0 01-.14 2.289l.026-.038a8.755 8.755 0 012.779-2.314v-1.1c0-.16-.022-.313-.035-.46V9.95a12.208 12.208 0 00-.354-1.934c-.021-.08-.042-.15-.06-.216l-.176.131-.04.033c-.059.044-.12.09-.186.145l-.035.027-.24.199a12.118 12.118 0 00-1.613 1.64z" fill="#A1227E"/><path d="M16.942 13.494a.657.657 0 01.022-.202c.017-.204.033-.41.048-.622v-.23c0-.272.02-.545.02-.837 0-.292 0-.633-.023-.94-.096.137-.185.28-.266.427l-.01.025c-.078.134-.152.273-.224.406l-.04.08a8.518 8.518 0 00-.183.387l-.048.11c-.07.163-.136.332-.194.507a9.807 9.807 0 00-.335 4.414c.018.142.042.273.063.41l.032.174.024.122a10.1 10.1 0 01.878-2.638 18.85 18.85 0 00.236-1.593zm-.21 4.714l.032-.027c.125-.11.266-.227.396-.355l.056-.052a10.482 10.482 0 00.468-.466c.144-.15.287-.311.433-.483l.043-.046c.144-.172.285-.355.425-.546.024-.033.051-.066.075-.1.136-.19.266-.388.39-.593l.072-.12c.125-.213.245-.431.354-.66l.045-.098c.116-.248.22-.503.309-.762.084-.251.155-.507.213-.766.015-.063.026-.129.04-.191.042-.21.08-.418.106-.625v-.085a9.186 9.186 0 00-1.146.819l-.077.063c-.173.147-.34.303-.503.469l-.08.082a6.516 6.516 0 00-.478.545 6.214 6.214 0 00-.386.584 6.52 6.52 0 00-.292.519 22.89 22.89 0 01-.856 3.167l.361-.273zm2.89-10.296l.176-.131-.176.13zm.538 1.566c.018.142.037.292.053.45-.024-.153-.024-.305-.053-.45z" fill="#A1227E"/><path d="M17.022 10.656c.016.31.024.623.024.942 0 .272 0 .545-.021.837v.23c-.019.215-.037.425-.061.632-.003.068-.01.135-.022.202a21.75 21.75 0 01-1.026 4.62c.032.146.066.272.096.387.029.114.042.152.06.218l.182-.137c.018-.15.042-.308.069-.474.16-.98.465-1.929.907-2.813a6.22 6.22 0 01.292-.518 6.23 6.23 0 01.386-.584 5.57 5.57 0 01.478-.546l.08-.082a7.6 7.6 0 01.502-.469l.078-.063a9.19 9.19 0 011.146-.818c.029-.232.05-.464.06-.688a8.709 8.709 0 00-2.775 2.311l-.027.038c.092-.76.14-1.524.141-2.289 0-.545-.027-1.091-.074-1.637a11.748 11.748 0 011.595-1.637 11.515 11.515 0 00-2.093 2.333l.003.005zm2.369-2.566c.067-.055.128-.102.186-.145l-.186.144zm-.266.226l.24-.2-.24.2zm1.141 2.723v.49c-.003-.166 0-.33 0-.49zm-.051-1.069zm.038.504c0 .158.014.322.014.49a9.67 9.67 0 00-.014-.49zm-4.207 2.131zm.242-.617c.059-.131.12-.273.184-.387a8.575 8.575 0 00-.184.387zm-.481 5.615l-.032-.175.032.175z" fill="#A1227E"/><path d="M17.022 10.657c-.09.139-.18.273-.266.428.083-.145.173-.29.266-.428zm0 .005zm-.51.859zm.534.082c0 .273 0 .56-.021.838.013-.279.021-.557.021-.838zm-.034 1.067c0 .21-.024.42-.048.627.034-.207.034-.417.048-.627zm-.304 2.417a10.1 10.1 0 00-.877 2.639c.03.139.056.273.085.387a21.75 21.75 0 00.792-3.026zm.447 2.733zm.487-.48zm-1.272 1.141a22.47 22.47 0 00.86-3.197 9.837 9.837 0 00-.907 2.812c-.027.167-.05.325-.07.475.136-.09.296-.218.48-.363l-.362.273zm1.742-1.661zm2.077-4.592zm-2.279 1.975zm-.364.532zm.922-1.165c.163-.166.33-.322.503-.469a5.405 5.405 0 00-.503.47zm1.721-1.257a8.81 8.81 0 01-.107.624c.038-.21.075-.417.107-.624zm-1.596 3.914c-.14.192-.281.374-.425.546.13-.172.271-.354.425-.546zm-1.361-.935zm1.814.243c-.125.204-.266.403-.391.592a6.6 6.6 0 00.39-.592zm.991-2.407zm-.567 1.626zm.355-.859zm-2.79 5.617l-.066.025.066-.025zm1.12-.485l-.096.049.096-.05zm-.58.273l-.1.04.1-.04zm.093.742c.226-.145.457-.273.692-.412a11.93 11.93 0 00-.692.412zm1.059-1.326l-.035.019.035-.02zm1.794-.616a9.086 9.086 0 012.55-.383 8.82 8.82 0 011.627.158c.176-.199.335-.392.474-.57a12.082 12.082 0 00.925-1.421 10.918 10.918 0 00-1.923-.273 8.362 8.362 0 00-.978 0c-.17 0-.332.027-.497.044a2.717 2.717 0 00-.378.038 7.514 7.514 0 01-1.8 2.428v-.022zm-1.181.223l-.08.052.08-.052zm.628-.486l-.098.099.098-.099zm.582-.547zm.814-1.032zm-4.757 3.402c.112-.036.234-.077.362-.123l.066-.025c.139-.052.285-.109.44-.174l.1-.041c.154-.068.317-.142.484-.224l.096-.049a7.3 7.3 0 00.531-.29l.035-.018c.178-.104.356-.219.532-.341l.08-.052c.178-.126.353-.273.531-.401l.099-.085a7.435 7.435 0 001.074-1.116 8.52 8.52 0 00.322-.463c.1-.156.183-.3.266-.453-.088.019-.179.035-.266.06l-.266.07c-.262.077-.52.168-.771.274a8.74 8.74 0 00-3.226 2.684c-.103.136-.196.273-.284.393a.817.817 0 00-.053.08l-.189.272v.019l.037.003z" fill="#A1227E"/><path d="M18.112 20.61a8.167 8.167 0 003.832-.623 6.39 6.39 0 00.606-.31l.175-.11a6.528 6.528 0 00.564-.382c.128-.095.25-.19.37-.292l.122-.104c.157-.133.306-.272.444-.409a7.72 7.72 0 00-1.151-.087c-1.902 0-3.614.726-4.715 1.337-.234.128-.465.273-.69.412a9.935 9.935 0 00-.655.447c.32.05.689.096 1.098.12z" fill="#A1227E"/><path d="M21.042 16.721a6.581 6.581 0 01-.492.568 7.46 7.46 0 01-.582.548l-.098.098c-.176.142-.351.273-.532.401l-.08.052a9.102 9.102 0 01-.532.341l-.034.02a13.37 13.37 0 01-.532.289l-.096.049c-.167.082-.33.155-.484.223l-.1.041c-.155.066-.301.123-.44.175l-.066.024-.361.123h-.03a5.25 5.25 0 00-.265.45l-.112.2c.191.049.476.111.824.169.213-.156.43-.306.654-.448.223-.142.457-.273.691-.412 1.101-.61 2.814-1.337 4.715-1.337.385 0 .77.03 1.15.088.34-.336.656-.695.948-1.075a12.38 12.38 0 01-.474.57 8.821 8.821 0 00-1.627-.158 9.086 9.086 0 00-2.55.382 7.521 7.521 0 001.779-2.431 7.917 7.917 0 00-.691.134 7.853 7.853 0 01-.583.916zm1.657-1.088c.165-.016.327-.035.497-.044-.17.008-.332.028-.497.044zm-1.335.625zm-2.104 2.117zm-2.43.925c.088-.126.182-.257.285-.393a4.077 4.077 0 00-.284.393zm-.241.352a5.11 5.11 0 01.188-.273c-.069.09-.13.194-.188.273zm4.522-3.716zm-3.637 3.402zm.588-.265zm.63-.338z" fill="#A1227E"/><path d="M16.969 19.537c-.128.047-.25.087-.362.123l.362-.123zm2.901-1.601a10.47 10.47 0 01-.532.4c.18-.128.356-.272.532-.4zm.606-.568zm.566-.647zm2.071 2.579c-.125.09-.265.174-.39.256a2.73 2.73 0 00.39-.256zm1.112-.92zm-1.675 1.296zm1.109-.783zm-6.645 1.596z" fill="#A1227E"/><path d="M15.24 20.584a.519.519 0 01.13.028c-.076-.249-.13-.412-.13-.412s-.053.163-.13.412a.519.519 0 01.13-.028zm-.438 2.911v.028c.017.547.168 1.08.439 1.552a3.339 3.339 0 00.428-1.552V23.5a17.17 17.17 0 01-.24-1.108 3.185 3.185 0 00-.199-.42 3.186 3.186 0 00-.2.42c-.055.369-.135.726-.228 1.102zm-.487-.318v.215c.088-.349.155-.663.208-.944-.096.336-.184.609-.208.729z" fill="#38A861"/><path d="M15.243 20.825a.236.236 0 01-.173-.088l-.417 1.318a4.42 4.42 0 01.588-.971c.234.297.432.623.587.971-.143-.456-.3-.952-.417-1.318a.247.247 0 01-.168.088zm.926 2.447v-.093a18 18 0 00-.216-.725c.053.272.12.594.208.94 0-.04.008-.078.008-.122z" fill="#38A861"/><path d="M15.24 20.584a.514.514 0 00-.13.028l-.042.125a.244.244 0 00.173.088.24.24 0 00.167-.088l-.04-.125a.514.514 0 00-.13-.027h.003zm-.587 1.471l-.122.396c-.053.273-.12.594-.208.944.075.849.394 1.656.918 2.319a4.317 4.317 0 00.917-2.322 15.217 15.217 0 01-.207-.941c-.038-.126-.08-.273-.123-.399a4.605 4.605 0 00-.587-.97 4.442 4.442 0 00-.588.973zm.798.338c.066.366.146.737.239 1.108v.022a3.337 3.337 0 01-.439 1.552 3.337 3.337 0 01-.438-1.552v-.027c.093-.366.172-.734.239-1.092a3.18 3.18 0 01.2-.42c.072.132.135.268.188.41h.01z" fill="#38A861"/><path d="M14.116 22.066c.09-.229.197-.45.319-.663.013-.127.019-.255.016-.382l-.138.038c-.433.354-.889.678-1.364.969-.266.458-.4.984-.386 1.517a2.648 2.648 0 001.417-.879c.038-.169.08-.335.11-.502a.678.678 0 01.026-.098z" fill="#A1227E"/><path d="M13.026 21.903c-.03.038-.05.081-.077.122.473-.29.927-.613 1.358-.965a2.57 2.57 0 00-1.281.843zm1.409-.5a5.039 5.039 0 00-.319.663.552.552 0 00-.027.096c-.029.166-.071.333-.109.502.26-.37.418-.806.455-1.26zm1.882.551l.048.112a.448.448 0 01.027.099v.016c.069.17.158.33.266.477.369.443.867.753 1.42.884a2.922 2.922 0 00-.282-1.342 12.916 12.916 0 01-1.595-1.108c-.003.292.037.582.116.862z" fill="#A1227E"/><path d="M16.2 21.021v.07c.505.41 1.038.78 1.596 1.109a1.883 1.883 0 00-.181-.298 2.633 2.633 0 00-1.415-.881zm.165 1.045l-.047-.112c.02.076.047.15.077.226v-.016a.463.463 0 00-.03-.098z" fill="#A1227E"/></g><defs><clipPath id="clip0_2319_151"><path fill="#fff" d="M0 0h30v28H0z"/></clipPath></defs></svg>